<svg width="240" height="45" viewBox="0 0 240 45" fill="none" xmlns="http://www.w3.org/2000/svg">
<path d="M57.2761 33.9567V11.4676H62.2773V33.9567H57.2761ZM61.1305 33.9567V29.5608H72.2477V33.9567H61.1305Z" fill="#FF7043"/>
<path d="M80.9036 34.2752C79.4808 34.2752 78.2066 33.9249 77.0811 33.2241C75.9768 32.5233 75.0955 31.5676 74.4372 30.3572C73.8001 29.1467 73.4815 27.7663 73.4815 26.2161C73.4815 24.6659 73.8001 23.2855 74.4372 22.075C75.0955 20.8646 75.9768 19.9089 77.0811 19.2082C78.2066 18.5074 79.4808 18.157 80.9036 18.157C81.9442 18.157 82.8786 18.3587 83.7068 18.7622C84.5562 19.1657 85.2464 19.7284 85.7773 20.4505C86.3082 21.1513 86.6055 21.9582 86.6692 22.8714V29.5608C86.6055 30.474 86.3082 31.2916 85.7773 32.0136C85.2676 32.7144 84.5881 33.2665 83.7386 33.67C82.8892 34.0735 81.9442 34.2752 80.9036 34.2752ZM81.8911 29.8794C82.9316 29.8794 83.7705 29.5396 84.4076 28.86C85.0447 28.1592 85.3632 27.2779 85.3632 26.2161C85.3632 25.4941 85.2145 24.857 84.9172 24.3048C84.6412 23.7527 84.2377 23.328 83.7068 23.0307C83.1971 22.7121 82.6025 22.5529 81.9229 22.5529C81.2434 22.5529 80.6381 22.7121 80.1072 23.0307C79.5976 23.328 79.1835 23.7527 78.8649 24.3048C78.5676 24.857 78.419 25.4941 78.419 26.2161C78.419 26.9169 78.5676 27.5434 78.8649 28.0955C79.1622 28.6477 79.5763 29.083 80.1072 29.4015C80.6381 29.7201 81.2328 29.8794 81.8911 29.8794ZM85.1721 33.9567V29.7838L85.9047 26.025L85.1721 22.2662V18.4755H89.9502V33.9567H85.1721Z" fill="#FF7043"/>
<path d="M92.3943 31.0898L100.167 21.3105H106.092L98.3192 31.0898H92.3943ZM92.3943 33.9567V31.0898L95.8664 29.8794H105.901V33.9567H92.3943ZM92.9677 22.5529V18.4755H106.092V21.3105L102.651 22.5529H92.9677Z" fill="#FF7043"/>
<path d="M113.496 34.0204L107.125 18.4755H112.381L116.427 30.8031H114.484L118.625 18.4755H123.881L117.255 34.0204H113.496ZM109.514 40.4868L114.165 30.4527L117.255 34.0204L114.515 40.4868H109.514Z" fill="#FF7043"/>
<path d="M132.629 34.3071C131.036 34.3071 129.592 33.9567 128.296 33.2559C127.001 32.5551 125.982 31.5889 125.238 30.3572C124.495 29.1255 124.123 27.7451 124.123 26.2161C124.123 24.6659 124.495 23.2855 125.238 22.075C126.003 20.8433 127.033 19.8771 128.328 19.1763C129.624 18.4755 131.078 18.1251 132.692 18.1251C133.903 18.1251 135.007 18.3375 136.005 18.7622C137.024 19.1657 137.927 19.7815 138.713 20.6097L135.591 23.7315C135.23 23.328 134.805 23.0307 134.317 22.8395C133.85 22.6484 133.308 22.5529 132.692 22.5529C131.991 22.5529 131.365 22.7121 130.813 23.0307C130.282 23.328 129.857 23.7527 129.539 24.3048C129.241 24.8358 129.093 25.4622 129.093 26.1843C129.093 26.9063 129.241 27.5434 129.539 28.0955C129.857 28.6477 130.293 29.083 130.845 29.4015C131.397 29.7201 132.013 29.8794 132.692 29.8794C133.329 29.8794 133.892 29.7732 134.381 29.5608C134.89 29.3272 135.326 29.0087 135.687 28.6052L138.776 31.7269C137.969 32.5764 137.056 33.2241 136.037 33.67C135.018 34.0947 133.881 34.3071 132.629 34.3071Z" fill="#FF7043"/>
<path d="M147.039 34.2752C145.616 34.2752 144.342 33.9249 143.216 33.2241C142.112 32.5233 141.231 31.5676 140.572 30.3572C139.935 29.1467 139.617 27.7663 139.617 26.2161C139.617 24.6659 139.935 23.2855 140.572 22.075C141.231 20.8646 142.112 19.9089 143.216 19.2082C144.342 18.5074 145.616 18.157 147.039 18.157C148.079 18.157 149.014 18.3587 149.842 18.7622C150.691 19.1657 151.381 19.7284 151.912 20.4505C152.443 21.1513 152.741 21.9582 152.804 22.8714V29.5608C152.741 30.474 152.443 31.2916 151.912 32.0136C151.403 32.7144 150.723 33.2665 149.874 33.67C149.024 34.0735 148.079 34.2752 147.039 34.2752ZM148.026 29.8794C149.067 29.8794 149.906 29.5396 150.543 28.86C151.18 28.1592 151.498 27.2779 151.498 26.2161C151.498 25.4941 151.35 24.857 151.052 24.3048C150.776 23.7527 150.373 23.328 149.842 23.0307C149.332 22.7121 148.738 22.5529 148.058 22.5529C147.378 22.5529 146.773 22.7121 146.242 23.0307C145.733 23.328 145.319 23.7527 145 24.3048C144.703 24.857 144.554 25.4941 144.554 26.2161C144.554 26.9169 144.703 27.5434 145 28.0955C145.297 28.6477 145.711 29.083 146.242 29.4015C146.773 29.7201 147.368 29.8794 148.026 29.8794ZM151.307 33.9567V29.7838L152.04 26.025L151.307 22.2662V18.4755H156.085V33.9567H151.307Z" fill="#FF7043"/>
<path d="M161.715 33.9567V12.0728H166.588V33.9567H161.715ZM158.211 22.6166V18.4755H170.092V22.6166H158.211Z" fill="#FF7043"/>
<path d="M172.686 33.9567V11.4676H177.687V33.9567H172.686ZM176.54 33.9567V29.5608H187.657V33.9567H176.54Z" fill="#00838F"/>
<path d="M196.313 34.2752C194.89 34.2752 193.616 33.9249 192.491 33.2241C191.386 32.5233 190.505 31.5676 189.847 30.3572C189.21 29.1467 188.891 27.7663 188.891 26.2161C188.891 24.6659 189.21 23.2855 189.847 22.075C190.505 20.8646 191.386 19.9089 192.491 19.2082C193.616 18.5074 194.89 18.157 196.313 18.157C197.354 18.157 198.288 18.3587 199.116 18.7622C199.966 19.1657 200.656 19.7284 201.187 20.4505C201.718 21.1513 202.015 21.9582 202.079 22.8714V29.5608C202.015 30.474 201.718 31.2916 201.187 32.0136C200.677 32.7144 199.998 33.2665 199.148 33.67C198.299 34.0735 197.354 34.2752 196.313 34.2752ZM197.301 29.8794C198.341 29.8794 199.18 29.5396 199.817 28.86C200.454 28.1592 200.773 27.2779 200.773 26.2161C200.773 25.4941 200.624 24.857 200.327 24.3048C200.051 23.7527 199.647 23.328 199.116 23.0307C198.607 22.7121 198.012 22.5529 197.333 22.5529C196.653 22.5529 196.048 22.7121 195.517 23.0307C195.007 23.328 194.593 23.7527 194.275 24.3048C193.977 24.857 193.829 25.4941 193.829 26.2161C193.829 26.9169 193.977 27.5434 194.275 28.0955C194.572 28.6477 194.986 29.083 195.517 29.4015C196.048 29.7201 196.642 29.8794 197.301 29.8794ZM200.582 33.9567V29.7838L201.314 26.025L200.582 22.2662V18.4755H205.36V33.9567H200.582Z" fill="#00838F"/>
<path d="M217.711 34.2752C216.67 34.2752 215.714 34.0629 214.844 33.6382C213.973 33.1922 213.262 32.6082 212.71 31.8862C212.157 31.1429 211.839 30.3147 211.754 29.4015V22.8714C211.839 21.9582 212.157 21.1513 212.71 20.4505C213.262 19.7284 213.973 19.1657 214.844 18.7622C215.714 18.3587 216.67 18.157 217.711 18.157C219.176 18.157 220.471 18.5074 221.597 19.2082C222.744 19.9089 223.636 20.8646 224.273 22.075C224.931 23.2855 225.26 24.6659 225.26 26.2161C225.26 27.7663 224.931 29.1467 224.273 30.3572C223.636 31.5676 222.744 32.5233 221.597 33.2241C220.471 33.9249 219.176 34.2752 217.711 34.2752ZM208.791 33.9567V10.8305H213.665V22.2662L212.869 26.025L213.601 29.7838V33.9567H208.791ZM216.851 29.8794C217.53 29.8794 218.125 29.7201 218.634 29.4015C219.165 29.083 219.579 28.6477 219.877 28.0955C220.174 27.5434 220.323 26.9169 220.323 26.2161C220.323 25.4941 220.174 24.857 219.877 24.3048C219.579 23.7527 219.165 23.328 218.634 23.0307C218.125 22.7121 217.53 22.5529 216.851 22.5529C216.171 22.5529 215.566 22.7121 215.035 23.0307C214.504 23.328 214.09 23.7527 213.793 24.3048C213.517 24.857 213.378 25.4941 213.378 26.2161C213.378 26.9381 213.527 27.5752 213.824 28.1274C214.122 28.6795 214.525 29.1148 215.035 29.4334C215.566 29.7307 216.171 29.8794 216.851 29.8794Z" fill="#00838F"/>
<path d="M233.374 34.339C232.461 34.339 231.559 34.2222 230.667 33.9886C229.796 33.755 228.978 33.4258 228.214 33.0011C227.471 32.5551 226.834 32.0454 226.303 31.4721L229.074 28.6689C229.584 29.221 230.189 29.6564 230.89 29.9749C231.59 30.2722 232.355 30.4209 233.183 30.4209C233.757 30.4209 234.192 30.3359 234.489 30.166C234.808 29.9962 234.967 29.7626 234.967 29.4652C234.967 29.083 234.776 28.7963 234.394 28.6052C234.033 28.3928 233.565 28.2123 232.992 28.0637C232.419 27.8938 231.813 27.7133 231.176 27.5221C230.539 27.331 229.934 27.0656 229.361 26.7258C228.787 26.386 228.32 25.9188 227.959 25.3242C227.598 24.7083 227.418 23.9332 227.418 22.9988C227.418 22.0007 227.672 21.1406 228.182 20.4186C228.692 19.6754 229.414 19.0914 230.348 18.6666C231.283 18.2419 232.376 18.0295 233.629 18.0295C234.946 18.0295 236.156 18.2631 237.261 18.7303C238.386 19.1763 239.299 19.8452 240 20.7372L237.229 23.5403C236.74 22.967 236.188 22.5635 235.572 22.3299C234.978 22.0963 234.394 21.9795 233.82 21.9795C233.268 21.9795 232.854 22.0644 232.578 22.2343C232.302 22.383 232.164 22.6059 232.164 22.9033C232.164 23.2218 232.344 23.4766 232.705 23.6678C233.066 23.8589 233.534 24.0288 234.107 24.1774C234.68 24.3261 235.286 24.5066 235.923 24.719C236.56 24.9313 237.165 25.218 237.738 25.579C238.312 25.94 238.779 26.4285 239.14 27.0443C239.501 27.6389 239.681 28.4247 239.681 29.4015C239.681 30.9093 239.108 32.1092 237.961 33.0011C236.836 33.893 235.307 34.339 233.374 34.339Z" fill="#00838F"/>
<path d="M13.3062 31.6748L18.3687 26.6123L31.0248 39.2685L25.9623 44.3309L13.3062 31.6748Z" fill="#FF7043"/>
<path d="M25.9623 44.3309L20.8999 39.2685L33.556 26.6123L38.6185 31.6748L25.9623 44.3309Z" fill="#FF7043"/>
<path d="M12.6561 31.0247L17.7186 25.9623L5.06246 13.3061L0 18.3686L12.6561 31.0247Z" fill="#00838F"/>
<path d="M0 18.3686L5.06246 23.431L17.7186 10.7749L12.6561 5.71243L0 18.3686Z" fill="#00838F"/>
<path d="M39.2685 5.7125L34.206 10.775L46.8621 23.4311L51.9246 18.3687L39.2685 5.7125Z" fill="#00838F"/>
<path d="M51.9246 18.3687L46.8621 13.3062L34.206 25.9623L39.2685 31.0248L51.9246 18.3687Z" fill="#00838F"/>
<path d="M38.6184 5.06246L33.556 3.86235e-07L20.8998 12.6561L25.9623 17.7186L38.6184 5.06246Z" fill="#FF7043"/>
<path d="M25.9623 17.7186L31.0247 12.6561L18.3686 0L13.3061 5.06246L25.9623 17.7186Z" fill="#FF7043"/>
<path d="M25.5055 26.7634C25.7098 27.1174 26.2207 27.1174 26.425 26.7634L27.7943 24.3917C27.9987 24.0378 27.7432 23.5954 27.3345 23.5954H24.5959C24.1872 23.5954 23.9318 24.0378 24.1362 24.3917L25.5055 26.7634Z" fill="#00838F"/>
</svg>
