<svg width="222" height="40" viewBox="0 0 222 40" fill="none" xmlns="http://www.w3.org/2000/svg">
<path d="M56.4326 30.6393V10.3472H60.9451V30.6393H56.4326ZM59.9104 30.6393V26.6729H69.9415V30.6393H59.9104Z" fill="#FF7043"/>
<path d="M77.7517 30.9267C76.4679 30.9267 75.3182 30.6106 74.3027 29.9782C73.3063 29.3459 72.5111 28.4836 71.9171 27.3914C71.3422 26.2992 71.0548 25.0537 71.0548 23.6549C71.0548 22.2561 71.3422 21.0106 71.9171 19.9184C72.5111 18.8262 73.3063 17.9639 74.3027 17.3316C75.3182 16.6993 76.4679 16.3831 77.7517 16.3831C78.6907 16.3831 79.5338 16.5651 80.2811 16.9292C81.0475 17.2933 81.6703 17.8011 82.1493 18.4526C82.6284 19.0849 82.8966 19.813 82.9541 20.637V26.6729C82.8966 27.4968 82.6284 28.2345 82.1493 28.886C81.6894 29.5183 81.0763 30.0165 80.3098 30.3806C79.5434 30.7447 78.6907 30.9267 77.7517 30.9267ZM78.6428 26.9603C79.5817 26.9603 80.3386 26.6537 80.9134 26.0405C81.4883 25.4082 81.7757 24.613 81.7757 23.6549C81.7757 23.0034 81.6415 22.4286 81.3733 21.9304C81.1242 21.4322 80.7601 21.0489 80.2811 20.7807C79.8212 20.4933 79.2847 20.3496 78.6715 20.3496C78.0583 20.3496 77.5122 20.4933 77.0332 20.7807C76.5733 21.0489 76.1997 21.4322 75.9122 21.9304C75.644 22.4286 75.5098 23.0034 75.5098 23.6549C75.5098 24.2872 75.644 24.8525 75.9122 25.3507C76.1805 25.8489 76.5542 26.2417 77.0332 26.5291C77.5122 26.8166 78.0488 26.9603 78.6428 26.9603ZM81.6032 30.6393V26.8741L82.2643 23.4825L81.6032 20.0909V16.6705H85.9146V30.6393H81.6032Z" fill="#FF7043"/>
<path d="M88.1199 28.0525L95.133 19.2286H100.479L93.4659 28.0525H88.1199ZM88.1199 30.6393V28.0525L91.2528 26.9603H100.307V30.6393H88.1199ZM88.6372 20.3496V16.6705H100.479V19.2286L97.3749 20.3496H88.6372Z" fill="#FF7043"/>
<path d="M107.16 30.6968L101.412 16.6705H106.154L109.804 27.7938H108.051L111.788 16.6705H116.53L110.552 30.6968H107.16ZM103.567 36.5315L107.764 27.4776L110.552 30.6968L108.08 36.5315H103.567Z" fill="#FF7043"/>
<path d="M124.423 30.9555C122.986 30.9555 121.683 30.6393 120.514 30.007C119.346 29.3746 118.426 28.5028 117.755 27.3914C117.085 26.28 116.749 25.0346 116.749 23.6549C116.749 22.2561 117.085 21.0106 117.755 19.9184C118.445 18.807 119.374 17.9352 120.543 17.3029C121.712 16.6705 123.025 16.3544 124.481 16.3544C125.573 16.3544 126.57 16.546 127.47 16.9292C128.39 17.2933 129.204 17.849 129.913 18.5963L127.096 21.413C126.771 21.049 126.387 20.7807 125.947 20.6082C125.525 20.4358 125.037 20.3496 124.481 20.3496C123.849 20.3496 123.283 20.4933 122.785 20.7807C122.306 21.0489 121.923 21.4322 121.635 21.9304C121.367 22.4094 121.233 22.9747 121.233 23.6262C121.233 24.2777 121.367 24.8525 121.635 25.3507C121.923 25.8489 122.316 26.2417 122.814 26.5291C123.312 26.8166 123.868 26.9603 124.481 26.9603C125.056 26.9603 125.564 26.8645 126.004 26.6729C126.464 26.4621 126.857 26.1747 127.183 25.8106L129.971 28.6273C129.243 29.3938 128.419 29.9782 127.499 30.3806C126.579 30.7638 125.554 30.9555 124.423 30.9555Z" fill="#FF7043"/>
<path d="M137.426 30.9267C136.142 30.9267 134.992 30.6106 133.977 29.9782C132.98 29.3459 132.185 28.4836 131.591 27.3914C131.016 26.2992 130.729 25.0537 130.729 23.6549C130.729 22.2561 131.016 21.0106 131.591 19.9184C132.185 18.8262 132.98 17.9639 133.977 17.3316C134.992 16.6993 136.142 16.3831 137.426 16.3831C138.365 16.3831 139.208 16.5651 139.955 16.9292C140.721 17.2933 141.344 17.8011 141.823 18.4526C142.302 19.0849 142.571 19.813 142.628 20.637V26.6729C142.571 27.4968 142.302 28.2345 141.823 28.886C141.363 29.5183 140.75 30.0165 139.984 30.3806C139.217 30.7447 138.365 30.9267 137.426 30.9267ZM138.317 26.9603C139.256 26.9603 140.013 26.6537 140.587 26.0405C141.162 25.4082 141.45 24.613 141.45 23.6549C141.45 23.0034 141.316 22.4286 141.047 21.9304C140.798 21.4322 140.434 21.0489 139.955 20.7807C139.495 20.4933 138.959 20.3496 138.345 20.3496C137.732 20.3496 137.186 20.4933 136.707 20.7807C136.247 21.0489 135.874 21.4322 135.586 21.9304C135.318 22.4286 135.184 23.0034 135.184 23.6549C135.184 24.2872 135.318 24.8525 135.586 25.3507C135.854 25.8489 136.228 26.2417 136.707 26.5291C137.186 26.8166 137.723 26.9603 138.317 26.9603ZM141.277 30.6393V26.8741L141.938 23.4825L141.277 20.0909V16.6705H145.589V30.6393H141.277Z" fill="#FF7043"/>
<path d="M150.668 30.6393V10.8933H155.066V30.6393H150.668ZM147.506 20.407V16.6705H158.227V20.407H147.506Z" fill="#FF7043"/>
<path d="M160.567 30.6393V10.3472H165.08V30.6393H160.567ZM164.045 30.6393V26.6729H174.076V30.6393H164.045Z" fill="#00838F"/>
<path d="M181.886 30.9267C180.603 30.9267 179.453 30.6106 178.437 29.9782C177.441 29.3459 176.646 28.4836 176.052 27.3914C175.477 26.2992 175.19 25.0537 175.19 23.6549C175.19 22.2561 175.477 21.0106 176.052 19.9184C176.646 18.8262 177.441 17.9639 178.437 17.3316C179.453 16.6993 180.603 16.3831 181.886 16.3831C182.825 16.3831 183.668 16.5651 184.416 16.9292C185.182 17.2933 185.805 17.8011 186.284 18.4526C186.763 19.0849 187.031 19.813 187.089 20.637V26.6729C187.031 27.4968 186.763 28.2345 186.284 28.886C185.824 29.5183 185.211 30.0165 184.445 30.3806C183.678 30.7447 182.825 30.9267 181.886 30.9267ZM182.777 26.9603C183.716 26.9603 184.473 26.6537 185.048 26.0405C185.623 25.4082 185.91 24.613 185.91 23.6549C185.91 23.0034 185.776 22.4286 185.508 21.9304C185.259 21.4322 184.895 21.0489 184.416 20.7807C183.956 20.4933 183.419 20.3496 182.806 20.3496C182.193 20.3496 181.647 20.4933 181.168 20.7807C180.708 21.0489 180.334 21.4322 180.047 21.9304C179.779 22.4286 179.645 23.0034 179.645 23.6549C179.645 24.2872 179.779 24.8525 180.047 25.3507C180.315 25.8489 180.689 26.2417 181.168 26.5291C181.647 26.8166 182.183 26.9603 182.777 26.9603ZM185.738 30.6393V26.8741L186.399 23.4825L185.738 20.0909V16.6705H190.049V30.6393H185.738Z" fill="#00838F"/>
<path d="M201.193 30.9267C200.255 30.9267 199.392 30.7351 198.607 30.3519C197.821 29.9495 197.179 29.4225 196.681 28.771C196.183 28.1004 195.895 27.3531 195.819 26.5291V20.637C195.895 19.813 196.183 19.0849 196.681 18.4526C197.179 17.8011 197.821 17.2933 198.607 16.9292C199.392 16.5651 200.255 16.3831 201.193 16.3831C202.516 16.3831 203.684 16.6993 204.7 17.3316C205.735 17.9639 206.54 18.8262 207.114 19.9184C207.708 21.0106 208.005 22.2561 208.005 23.6549C208.005 25.0537 207.708 26.2992 207.114 27.3914C206.54 28.4836 205.735 29.3459 204.7 29.9782C203.684 30.6106 202.516 30.9267 201.193 30.9267ZM193.146 30.6393V9.77238H197.543V20.0909L196.825 23.4825L197.486 26.8741V30.6393H193.146ZM200.417 26.9603C201.031 26.9603 201.567 26.8166 202.027 26.5291C202.506 26.2417 202.88 25.8489 203.148 25.3507C203.416 24.8525 203.55 24.2872 203.55 23.6549C203.55 23.0034 203.416 22.4286 203.148 21.9304C202.88 21.4322 202.506 21.0489 202.027 20.7807C201.567 20.4933 201.031 20.3496 200.417 20.3496C199.804 20.3496 199.258 20.4933 198.779 20.7807C198.3 21.0489 197.926 21.4322 197.658 21.9304C197.409 22.4286 197.284 23.0034 197.284 23.6549C197.284 24.3064 197.419 24.8813 197.687 25.3795C197.955 25.8777 198.319 26.2705 198.779 26.5579C199.258 26.8262 199.804 26.9603 200.417 26.9603Z" fill="#00838F"/>
<path d="M215.327 30.9842C214.503 30.9842 213.688 30.8788 212.884 30.668C212.098 30.4573 211.36 30.1603 210.671 29.777C210 29.3746 209.425 28.9148 208.946 28.3974L211.447 25.8681C211.906 26.3663 212.453 26.7591 213.085 27.0465C213.717 27.3148 214.407 27.4489 215.154 27.4489C215.672 27.4489 216.065 27.3723 216.333 27.219C216.62 27.0657 216.764 26.8549 216.764 26.5866C216.764 26.2417 216.591 25.983 216.247 25.8106C215.921 25.619 215.499 25.4561 214.982 25.322C214.465 25.1687 213.918 25.0058 213.344 24.8334C212.769 24.6609 212.223 24.4214 211.705 24.1148C211.188 23.8082 210.766 23.3867 210.441 22.8501C210.115 22.2944 209.952 21.5951 209.952 20.7519C209.952 19.8514 210.182 19.0753 210.642 18.4238C211.102 17.7532 211.753 17.2262 212.596 16.843C213.439 16.4598 214.426 16.2681 215.557 16.2681C216.745 16.2681 217.837 16.4789 218.833 16.9005C219.849 17.3029 220.673 17.9065 221.305 18.7112L218.805 21.2406C218.364 20.7232 217.866 20.3591 217.31 20.1484C216.773 19.9376 216.247 19.8322 215.729 19.8322C215.231 19.8322 214.857 19.9088 214.608 20.0621C214.359 20.1963 214.235 20.3975 214.235 20.6657C214.235 20.9531 214.397 21.1831 214.723 21.3555C215.049 21.528 215.471 21.6813 215.988 21.8154C216.505 21.9495 217.051 22.1124 217.626 22.304C218.201 22.4956 218.747 22.7543 219.264 23.0801C219.782 23.4058 220.203 23.8465 220.529 24.4022C220.855 24.9387 221.018 25.6477 221.018 26.5291C221.018 27.8896 220.5 28.9722 219.466 29.777C218.45 30.5818 217.07 30.9842 215.327 30.9842Z" fill="#00838F"/>
<path d="M12.0062 28.5803L16.5741 24.0124L27.9938 35.4321L23.4259 40L12.0062 28.5803Z" fill="#FF7043"/>
<path d="M23.4259 40L18.8581 35.4321L30.2778 24.0124L34.8456 28.5803L23.4259 40Z" fill="#FF7043"/>
<path d="M11.4197 27.9938L15.9876 23.4259L4.56788 12.0062L0 16.5741L11.4197 27.9938Z" fill="#00838F"/>
<path d="M0 16.5741L4.56788 21.1419L15.9876 9.72224L11.4197 5.15435L0 16.5741Z" fill="#00838F"/>
<path d="M35.4321 5.15442L30.8642 9.7223L42.2839 21.142L46.8518 16.5741L35.4321 5.15442Z" fill="#00838F"/>
<path d="M46.8518 16.5741L42.2839 12.0062L30.8642 23.4259L35.4321 27.9938L46.8518 16.5741Z" fill="#00838F"/>
<path d="M34.8456 4.56788L30.2777 3.48502e-07L18.858 11.4197L23.4259 15.9876L34.8456 4.56788Z" fill="#FF7043"/>
<path d="M23.4259 15.9876L27.9938 11.4197L16.5741 0L12.0062 4.56788L23.4259 15.9876Z" fill="#FF7043"/>
<path d="M23.0137 24.1488C23.1981 24.4681 23.659 24.4681 23.8434 24.1488L25.0789 22.0088C25.2633 21.6894 25.0328 21.2902 24.6641 21.2902H22.193C21.8243 21.2902 21.5938 21.6894 21.7782 22.0088L23.0137 24.1488Z" fill="#00838F"/>
</svg>
