<svg width="148" height="30" viewBox="0 0 148 30" fill="none" xmlns="http://www.w3.org/2000/svg">
<path d="M20.2549 24.5176L15.9121 28.8672L1.7002 14.6328C0.500545 13.4313 0.500545 11.4828 1.7002 10.2812L3.87012 8.10645L20.2549 24.5176ZM30.0576 10.2764C31.2613 11.4739 31.2679 13.4223 30.0723 14.6279L22.8906 21.8701L18.5322 17.5342L27.8799 8.10938L30.0576 10.2764ZM20.2168 10.5254L15.874 14.875L6.49512 5.48145L10.8379 1.13184L20.2168 10.5254Z" stroke="black" stroke-width="1.6"/>
<mask id="path-2-outside-1_1165_39382" maskUnits="userSpaceOnUse" x="39.3359" y="5" width="109" height="19" fill="black">
<rect fill="white" x="39.3359" y="5" width="109" height="19"/>
<path d="M40.5823 23.4499C40.4181 23.4499 40.3359 23.3677 40.3359 23.2034V6.44364C40.3359 6.27933 40.4181 6.19717 40.5823 6.19717H41.3953C41.5595 6.19717 41.6416 6.27933 41.6416 6.44364V22.1929C41.6416 22.2586 41.6745 22.2915 41.7402 22.2915H47.505C47.6692 22.2915 47.7513 22.3736 47.7513 22.538V23.2034C47.7513 23.3677 47.6692 23.4499 47.505 23.4499H40.5823Z"/>
<path d="M57.4456 23.4499C57.2978 23.4499 57.2074 23.3759 57.1746 23.2281L56.5094 19.9993C56.5094 19.9665 56.493 19.9418 56.4601 19.9254C56.4437 19.909 56.4191 19.9008 56.3862 19.9008H51.5576C51.5247 19.9008 51.4919 19.909 51.459 19.9254C51.4426 19.9418 51.4344 19.9665 51.4344 19.9993L50.7692 23.2281C50.7528 23.3759 50.6625 23.4499 50.4982 23.4499H49.6853C49.6031 23.4499 49.5374 23.4252 49.4882 23.3759C49.4553 23.3267 49.4471 23.2609 49.4635 23.1788L53.2082 6.41899C53.241 6.27111 53.3314 6.19717 53.4792 6.19717H54.4646C54.6289 6.19717 54.7192 6.27111 54.7356 6.41899L58.5049 23.1788V23.2281C58.5049 23.3759 58.431 23.4499 58.2832 23.4499H57.4456ZM51.7054 18.7177C51.7054 18.7834 51.73 18.8163 51.7793 18.8163H56.1399C56.1891 18.8163 56.2138 18.7834 56.2138 18.7177L54.0212 8.29215C54.0048 8.24285 53.9883 8.21821 53.9719 8.21821C53.9555 8.21821 53.9391 8.24285 53.9226 8.29215L51.7054 18.7177Z"/>
<path d="M59.9246 23.4499C59.7603 23.4499 59.6782 23.3677 59.6782 23.2034V22.4394C59.6782 22.3244 59.6946 22.2258 59.7275 22.1436L65.9357 7.4788C65.9521 7.44594 65.9521 7.42129 65.9357 7.40486C65.9193 7.372 65.8947 7.35557 65.8618 7.35557H59.9246C59.7603 7.35557 59.6782 7.27341 59.6782 7.1091V6.44364C59.6782 6.27933 59.7603 6.19717 59.9246 6.19717H67.1182C67.2825 6.19717 67.3646 6.27933 67.3646 6.44364V7.20769C67.3646 7.32271 67.3482 7.42129 67.3153 7.50345L61.1317 22.1683C61.1153 22.2011 61.1153 22.234 61.1317 22.2668C61.1481 22.2833 61.1728 22.2915 61.2056 22.2915H67.1182C67.2825 22.2915 67.3646 22.3736 67.3646 22.538V23.2034C67.3646 23.3677 67.2825 23.4499 67.1182 23.4499H59.9246Z"/>
<path d="M73.0709 23.4499C72.9067 23.4499 72.8245 23.3677 72.8245 23.2034V15.5629C72.8245 15.4972 72.8163 15.4561 72.7999 15.4397L69.4001 6.49293L69.3755 6.39435C69.3755 6.2629 69.4494 6.19717 69.5972 6.19717H70.4595C70.6073 6.19717 70.7058 6.2629 70.7551 6.39435L73.4158 13.9362C73.4322 13.9691 73.4569 13.9855 73.4897 13.9855C73.5226 13.9855 73.5472 13.9691 73.5636 13.9362L76.1997 6.39435C76.2489 6.2629 76.3475 6.19717 76.4953 6.19717H77.3575C77.4397 6.19717 77.4971 6.23004 77.53 6.29576C77.5793 6.34505 77.5875 6.41078 77.5546 6.49293L74.1549 15.4397C74.1385 15.4561 74.1302 15.4972 74.1302 15.5629V23.2034C74.1302 23.3677 74.0481 23.4499 73.8839 23.4499H73.0709Z"/>
<path d="M83.8687 23.6471C82.6698 23.6471 81.7008 23.2774 80.9617 22.538C80.239 21.7821 79.8777 20.7798 79.8777 19.5311V10.0667C79.8777 8.83437 80.239 7.8485 80.9617 7.1091C81.7008 6.3697 82.6698 6 83.8687 6C85.0841 6 86.0531 6.3697 86.7758 7.1091C87.5149 7.8485 87.8844 8.83437 87.8844 10.0667V10.535C87.8844 10.6172 87.8598 10.6829 87.8105 10.7322C87.7612 10.7815 87.7037 10.8061 87.638 10.8061L86.825 10.8554C86.6608 10.8554 86.5787 10.7732 86.5787 10.6089V9.99277C86.5787 9.13835 86.3323 8.45646 85.8396 7.94709C85.3469 7.42129 84.6899 7.1584 83.8687 7.1584C83.064 7.1584 82.4152 7.42129 81.9225 7.94709C81.4298 8.45646 81.1834 9.13835 81.1834 9.99277V19.6296C81.1834 20.4841 81.4298 21.1742 81.9225 21.7C82.4152 22.2258 83.064 22.4887 83.8687 22.4887C84.6735 22.4887 85.3223 22.2258 85.815 21.7C86.3241 21.1742 86.5787 20.4841 86.5787 19.6296V19.0628C86.5787 18.8985 86.6608 18.8163 86.825 18.8163L87.638 18.8656C87.8023 18.8656 87.8844 18.9477 87.8844 19.1121V19.5311C87.8844 20.7798 87.5149 21.7821 86.7758 22.538C86.0531 23.2774 85.0841 23.6471 83.8687 23.6471Z"/>
<path d="M97.4549 23.4499C97.3071 23.4499 97.2167 23.3759 97.1839 23.2281L96.5187 19.9993C96.5187 19.9665 96.5023 19.9418 96.4694 19.9254C96.453 19.909 96.4284 19.9008 96.3955 19.9008H91.5669C91.534 19.9008 91.5012 19.909 91.4683 19.9254C91.4519 19.9418 91.4437 19.9665 91.4437 19.9993L90.7785 23.2281C90.7621 23.3759 90.6718 23.4499 90.5075 23.4499H89.6946C89.6124 23.4499 89.5467 23.4252 89.4975 23.3759C89.4646 23.3267 89.4564 23.2609 89.4728 23.1788L93.2175 6.41899C93.2503 6.27111 93.3407 6.19717 93.4885 6.19717H94.4739C94.6382 6.19717 94.7285 6.27111 94.7449 6.41899L98.5142 23.1788V23.2281C98.5142 23.3759 98.4403 23.4499 98.2925 23.4499H97.4549ZM91.7147 18.7177C91.7147 18.7834 91.7393 18.8163 91.7886 18.8163H96.1492C96.1984 18.8163 96.2231 18.7834 96.2231 18.7177L94.0305 8.29215C94.014 8.24285 93.9976 8.21821 93.9812 8.21821C93.9648 8.21821 93.9484 8.24285 93.9319 8.29215L91.7147 18.7177Z"/>
<path d="M106.325 6.19717C106.489 6.19717 106.571 6.27933 106.571 6.44364V7.1091C106.571 7.27341 106.489 7.35557 106.325 7.35557H103.049C102.983 7.35557 102.95 7.38843 102.95 7.45416V23.2034C102.95 23.3677 102.868 23.4499 102.704 23.4499H101.891C101.726 23.4499 101.644 23.3677 101.644 23.2034V7.45416C101.644 7.38843 101.611 7.35557 101.546 7.35557H98.4663C98.302 7.35557 98.2199 7.27341 98.2199 7.1091V6.44364C98.2199 6.27933 98.302 6.19717 98.4663 6.19717H106.325Z"/>
<path d="M109.462 23.4499C109.298 23.4499 109.215 23.3677 109.215 23.2034V6.44364C109.215 6.27933 109.298 6.19717 109.462 6.19717H110.275C110.439 6.19717 110.521 6.27933 110.521 6.44364V22.1929C110.521 22.2586 110.554 22.2915 110.62 22.2915H116.384C116.549 22.2915 116.631 22.3736 116.631 22.538V23.2034C116.631 23.3677 116.549 23.4499 116.384 23.4499H109.462Z"/>
<path d="M126.325 23.4499C126.177 23.4499 126.087 23.3759 126.054 23.2281L125.389 19.9993C125.389 19.9665 125.372 19.9418 125.34 19.9254C125.323 19.909 125.299 19.9008 125.266 19.9008H120.437C120.404 19.9008 120.371 19.909 120.339 19.9254C120.322 19.9418 120.314 19.9665 120.314 19.9993L119.649 23.2281C119.632 23.3759 119.542 23.4499 119.378 23.4499H118.565C118.483 23.4499 118.417 23.4252 118.368 23.3759C118.335 23.3267 118.327 23.2609 118.343 23.1788L122.088 6.41899C122.121 6.27111 122.211 6.19717 122.359 6.19717H123.344C123.508 6.19717 123.599 6.27111 123.615 6.41899L127.384 23.1788V23.2281C127.384 23.3759 127.311 23.4499 127.163 23.4499H126.325ZM120.585 18.7177C120.585 18.7834 120.61 18.8163 120.659 18.8163H125.019C125.069 18.8163 125.093 18.7834 125.093 18.7177L122.901 8.29215C122.884 8.24285 122.868 8.21821 122.851 8.21821C122.835 8.21821 122.819 8.24285 122.802 8.29215L120.585 18.7177Z"/>
<path d="M137.673 18.7917C137.689 20.2705 137.312 21.4206 136.54 22.2422C135.768 23.0473 134.717 23.4499 133.386 23.4499H129.863C129.699 23.4499 129.617 23.3677 129.617 23.2034V6.44364C129.617 6.27933 129.699 6.19717 129.863 6.19717H133.239C134.602 6.19717 135.669 6.5833 136.441 7.35557C137.213 8.12783 137.599 9.22872 137.599 10.6582C137.599 12.5478 136.893 13.8212 135.48 14.4785C135.448 14.4949 135.423 14.5113 135.406 14.5278C135.406 14.5442 135.415 14.5606 135.431 14.5771C136.154 14.9385 136.704 15.4808 137.082 16.2037C137.476 16.9103 137.673 17.7729 137.673 18.7917ZM131.021 7.35557C130.956 7.35557 130.923 7.38843 130.923 7.45416V13.9116C130.923 13.9773 130.956 14.0102 131.021 14.0102H133.263C134.232 14.0102 134.979 13.7226 135.505 13.1476C136.047 12.5725 136.318 11.7673 136.318 10.7322C136.318 9.66415 136.047 8.83437 135.505 8.24285C134.963 7.65133 134.216 7.35557 133.263 7.35557H131.021ZM133.312 22.2668C134.281 22.2668 135.029 21.9547 135.554 21.3303C136.096 20.7059 136.367 19.8268 136.367 18.6931C136.367 17.5429 136.096 16.6474 135.554 16.0066C135.012 15.3658 134.265 15.0454 133.312 15.0454H131.021C130.956 15.0454 130.923 15.0782 130.923 15.1439V22.1683C130.923 22.234 130.956 22.2668 131.021 22.2668H133.312Z"/>
<path d="M143.619 23.6471C142.453 23.6471 141.509 23.2527 140.786 22.464C140.063 21.6589 139.702 20.6155 139.702 19.3339V18.8163C139.702 18.652 139.784 18.5698 139.948 18.5698H140.737C140.901 18.5698 140.983 18.652 140.983 18.8163V19.2846C140.983 20.254 141.221 21.0345 141.697 21.626C142.19 22.2175 142.823 22.5133 143.594 22.5133C144.366 22.5133 145.007 22.2258 145.516 21.6507C146.025 21.0756 146.28 20.328 146.28 19.4078C146.28 18.7999 146.157 18.2741 145.91 17.8304C145.68 17.3868 145.376 17.0089 144.999 16.6967C144.637 16.3681 144.038 15.8833 143.2 15.2425C142.346 14.6017 141.689 14.0759 141.229 13.6651C140.786 13.2379 140.416 12.7368 140.121 12.1617C139.825 11.5702 139.677 10.8718 139.677 10.0667C139.677 8.80151 140.03 7.80743 140.737 7.08446C141.443 6.36149 142.354 6 143.471 6C144.67 6 145.631 6.40256 146.354 7.20769C147.076 8.01282 147.438 9.07263 147.438 10.3871V11.0033C147.438 11.1676 147.356 11.2498 147.191 11.2498H146.378C146.214 11.2498 146.132 11.1676 146.132 11.0033V10.3871C146.132 9.41768 145.886 8.6372 145.393 8.04568C144.917 7.43773 144.276 7.13375 143.471 7.13375C142.749 7.13375 142.149 7.39665 141.673 7.92244C141.197 8.43181 140.958 9.15478 140.958 10.0914C140.958 10.65 141.057 11.1347 141.254 11.5455C141.468 11.9563 141.763 12.3424 142.141 12.7039C142.535 13.0654 143.126 13.5419 143.915 14.1334C144.884 14.8564 145.606 15.4397 146.083 15.8833C146.559 16.327 146.92 16.8117 147.167 17.3375C147.429 17.8633 147.561 18.4959 147.561 19.2353C147.561 20.5826 147.191 21.6589 146.452 22.464C145.73 23.2527 144.785 23.6471 143.619 23.6471Z"/>
</mask>
<path d="M40.5823 23.4499C40.4181 23.4499 40.3359 23.3677 40.3359 23.2034V6.44364C40.3359 6.27933 40.4181 6.19717 40.5823 6.19717H41.3953C41.5595 6.19717 41.6416 6.27933 41.6416 6.44364V22.1929C41.6416 22.2586 41.6745 22.2915 41.7402 22.2915H47.505C47.6692 22.2915 47.7513 22.3736 47.7513 22.538V23.2034C47.7513 23.3677 47.6692 23.4499 47.505 23.4499H40.5823Z" fill="black"/>
<path d="M57.4456 23.4499C57.2978 23.4499 57.2074 23.3759 57.1746 23.2281L56.5094 19.9993C56.5094 19.9665 56.493 19.9418 56.4601 19.9254C56.4437 19.909 56.4191 19.9008 56.3862 19.9008H51.5576C51.5247 19.9008 51.4919 19.909 51.459 19.9254C51.4426 19.9418 51.4344 19.9665 51.4344 19.9993L50.7692 23.2281C50.7528 23.3759 50.6625 23.4499 50.4982 23.4499H49.6853C49.6031 23.4499 49.5374 23.4252 49.4882 23.3759C49.4553 23.3267 49.4471 23.2609 49.4635 23.1788L53.2082 6.41899C53.241 6.27111 53.3314 6.19717 53.4792 6.19717H54.4646C54.6289 6.19717 54.7192 6.27111 54.7356 6.41899L58.5049 23.1788V23.2281C58.5049 23.3759 58.431 23.4499 58.2832 23.4499H57.4456ZM51.7054 18.7177C51.7054 18.7834 51.73 18.8163 51.7793 18.8163H56.1399C56.1891 18.8163 56.2138 18.7834 56.2138 18.7177L54.0212 8.29215C54.0048 8.24285 53.9883 8.21821 53.9719 8.21821C53.9555 8.21821 53.9391 8.24285 53.9226 8.29215L51.7054 18.7177Z" fill="black"/>
<path d="M59.9246 23.4499C59.7603 23.4499 59.6782 23.3677 59.6782 23.2034V22.4394C59.6782 22.3244 59.6946 22.2258 59.7275 22.1436L65.9357 7.4788C65.9521 7.44594 65.9521 7.42129 65.9357 7.40486C65.9193 7.372 65.8947 7.35557 65.8618 7.35557H59.9246C59.7603 7.35557 59.6782 7.27341 59.6782 7.1091V6.44364C59.6782 6.27933 59.7603 6.19717 59.9246 6.19717H67.1182C67.2825 6.19717 67.3646 6.27933 67.3646 6.44364V7.20769C67.3646 7.32271 67.3482 7.42129 67.3153 7.50345L61.1317 22.1683C61.1153 22.2011 61.1153 22.234 61.1317 22.2668C61.1481 22.2833 61.1728 22.2915 61.2056 22.2915H67.1182C67.2825 22.2915 67.3646 22.3736 67.3646 22.538V23.2034C67.3646 23.3677 67.2825 23.4499 67.1182 23.4499H59.9246Z" fill="black"/>
<path d="M73.0709 23.4499C72.9067 23.4499 72.8245 23.3677 72.8245 23.2034V15.5629C72.8245 15.4972 72.8163 15.4561 72.7999 15.4397L69.4001 6.49293L69.3755 6.39435C69.3755 6.2629 69.4494 6.19717 69.5972 6.19717H70.4595C70.6073 6.19717 70.7058 6.2629 70.7551 6.39435L73.4158 13.9362C73.4322 13.9691 73.4569 13.9855 73.4897 13.9855C73.5226 13.9855 73.5472 13.9691 73.5636 13.9362L76.1997 6.39435C76.2489 6.2629 76.3475 6.19717 76.4953 6.19717H77.3575C77.4397 6.19717 77.4971 6.23004 77.53 6.29576C77.5793 6.34505 77.5875 6.41078 77.5546 6.49293L74.1549 15.4397C74.1385 15.4561 74.1302 15.4972 74.1302 15.5629V23.2034C74.1302 23.3677 74.0481 23.4499 73.8839 23.4499H73.0709Z" fill="black"/>
<path d="M83.8687 23.6471C82.6698 23.6471 81.7008 23.2774 80.9617 22.538C80.239 21.7821 79.8777 20.7798 79.8777 19.5311V10.0667C79.8777 8.83437 80.239 7.8485 80.9617 7.1091C81.7008 6.3697 82.6698 6 83.8687 6C85.0841 6 86.0531 6.3697 86.7758 7.1091C87.5149 7.8485 87.8844 8.83437 87.8844 10.0667V10.535C87.8844 10.6172 87.8598 10.6829 87.8105 10.7322C87.7612 10.7815 87.7037 10.8061 87.638 10.8061L86.825 10.8554C86.6608 10.8554 86.5787 10.7732 86.5787 10.6089V9.99277C86.5787 9.13835 86.3323 8.45646 85.8396 7.94709C85.3469 7.42129 84.6899 7.1584 83.8687 7.1584C83.064 7.1584 82.4152 7.42129 81.9225 7.94709C81.4298 8.45646 81.1834 9.13835 81.1834 9.99277V19.6296C81.1834 20.4841 81.4298 21.1742 81.9225 21.7C82.4152 22.2258 83.064 22.4887 83.8687 22.4887C84.6735 22.4887 85.3223 22.2258 85.815 21.7C86.3241 21.1742 86.5787 20.4841 86.5787 19.6296V19.0628C86.5787 18.8985 86.6608 18.8163 86.825 18.8163L87.638 18.8656C87.8023 18.8656 87.8844 18.9477 87.8844 19.1121V19.5311C87.8844 20.7798 87.5149 21.7821 86.7758 22.538C86.0531 23.2774 85.0841 23.6471 83.8687 23.6471Z" fill="black"/>
<path d="M97.4549 23.4499C97.3071 23.4499 97.2167 23.3759 97.1839 23.2281L96.5187 19.9993C96.5187 19.9665 96.5023 19.9418 96.4694 19.9254C96.453 19.909 96.4284 19.9008 96.3955 19.9008H91.5669C91.534 19.9008 91.5012 19.909 91.4683 19.9254C91.4519 19.9418 91.4437 19.9665 91.4437 19.9993L90.7785 23.2281C90.7621 23.3759 90.6718 23.4499 90.5075 23.4499H89.6946C89.6124 23.4499 89.5467 23.4252 89.4975 23.3759C89.4646 23.3267 89.4564 23.2609 89.4728 23.1788L93.2175 6.41899C93.2503 6.27111 93.3407 6.19717 93.4885 6.19717H94.4739C94.6382 6.19717 94.7285 6.27111 94.7449 6.41899L98.5142 23.1788V23.2281C98.5142 23.3759 98.4403 23.4499 98.2925 23.4499H97.4549ZM91.7147 18.7177C91.7147 18.7834 91.7393 18.8163 91.7886 18.8163H96.1492C96.1984 18.8163 96.2231 18.7834 96.2231 18.7177L94.0305 8.29215C94.014 8.24285 93.9976 8.21821 93.9812 8.21821C93.9648 8.21821 93.9484 8.24285 93.9319 8.29215L91.7147 18.7177Z" fill="black"/>
<path d="M106.325 6.19717C106.489 6.19717 106.571 6.27933 106.571 6.44364V7.1091C106.571 7.27341 106.489 7.35557 106.325 7.35557H103.049C102.983 7.35557 102.95 7.38843 102.95 7.45416V23.2034C102.95 23.3677 102.868 23.4499 102.704 23.4499H101.891C101.726 23.4499 101.644 23.3677 101.644 23.2034V7.45416C101.644 7.38843 101.611 7.35557 101.546 7.35557H98.4663C98.302 7.35557 98.2199 7.27341 98.2199 7.1091V6.44364C98.2199 6.27933 98.302 6.19717 98.4663 6.19717H106.325Z" fill="black"/>
<path d="M109.462 23.4499C109.298 23.4499 109.215 23.3677 109.215 23.2034V6.44364C109.215 6.27933 109.298 6.19717 109.462 6.19717H110.275C110.439 6.19717 110.521 6.27933 110.521 6.44364V22.1929C110.521 22.2586 110.554 22.2915 110.62 22.2915H116.384C116.549 22.2915 116.631 22.3736 116.631 22.538V23.2034C116.631 23.3677 116.549 23.4499 116.384 23.4499H109.462Z" fill="black"/>
<path d="M126.325 23.4499C126.177 23.4499 126.087 23.3759 126.054 23.2281L125.389 19.9993C125.389 19.9665 125.372 19.9418 125.34 19.9254C125.323 19.909 125.299 19.9008 125.266 19.9008H120.437C120.404 19.9008 120.371 19.909 120.339 19.9254C120.322 19.9418 120.314 19.9665 120.314 19.9993L119.649 23.2281C119.632 23.3759 119.542 23.4499 119.378 23.4499H118.565C118.483 23.4499 118.417 23.4252 118.368 23.3759C118.335 23.3267 118.327 23.2609 118.343 23.1788L122.088 6.41899C122.121 6.27111 122.211 6.19717 122.359 6.19717H123.344C123.508 6.19717 123.599 6.27111 123.615 6.41899L127.384 23.1788V23.2281C127.384 23.3759 127.311 23.4499 127.163 23.4499H126.325ZM120.585 18.7177C120.585 18.7834 120.61 18.8163 120.659 18.8163H125.019C125.069 18.8163 125.093 18.7834 125.093 18.7177L122.901 8.29215C122.884 8.24285 122.868 8.21821 122.851 8.21821C122.835 8.21821 122.819 8.24285 122.802 8.29215L120.585 18.7177Z" fill="black"/>
<path d="M137.673 18.7917C137.689 20.2705 137.312 21.4206 136.54 22.2422C135.768 23.0473 134.717 23.4499 133.386 23.4499H129.863C129.699 23.4499 129.617 23.3677 129.617 23.2034V6.44364C129.617 6.27933 129.699 6.19717 129.863 6.19717H133.239C134.602 6.19717 135.669 6.5833 136.441 7.35557C137.213 8.12783 137.599 9.22872 137.599 10.6582C137.599 12.5478 136.893 13.8212 135.48 14.4785C135.448 14.4949 135.423 14.5113 135.406 14.5278C135.406 14.5442 135.415 14.5606 135.431 14.5771C136.154 14.9385 136.704 15.4808 137.082 16.2037C137.476 16.9103 137.673 17.7729 137.673 18.7917ZM131.021 7.35557C130.956 7.35557 130.923 7.38843 130.923 7.45416V13.9116C130.923 13.9773 130.956 14.0102 131.021 14.0102H133.263C134.232 14.0102 134.979 13.7226 135.505 13.1476C136.047 12.5725 136.318 11.7673 136.318 10.7322C136.318 9.66415 136.047 8.83437 135.505 8.24285C134.963 7.65133 134.216 7.35557 133.263 7.35557H131.021ZM133.312 22.2668C134.281 22.2668 135.029 21.9547 135.554 21.3303C136.096 20.7059 136.367 19.8268 136.367 18.6931C136.367 17.5429 136.096 16.6474 135.554 16.0066C135.012 15.3658 134.265 15.0454 133.312 15.0454H131.021C130.956 15.0454 130.923 15.0782 130.923 15.1439V22.1683C130.923 22.234 130.956 22.2668 131.021 22.2668H133.312Z" fill="black"/>
<path d="M143.619 23.6471C142.453 23.6471 141.509 23.2527 140.786 22.464C140.063 21.6589 139.702 20.6155 139.702 19.3339V18.8163C139.702 18.652 139.784 18.5698 139.948 18.5698H140.737C140.901 18.5698 140.983 18.652 140.983 18.8163V19.2846C140.983 20.254 141.221 21.0345 141.697 21.626C142.19 22.2175 142.823 22.5133 143.594 22.5133C144.366 22.5133 145.007 22.2258 145.516 21.6507C146.025 21.0756 146.28 20.328 146.28 19.4078C146.28 18.7999 146.157 18.2741 145.91 17.8304C145.68 17.3868 145.376 17.0089 144.999 16.6967C144.637 16.3681 144.038 15.8833 143.2 15.2425C142.346 14.6017 141.689 14.0759 141.229 13.6651C140.786 13.2379 140.416 12.7368 140.121 12.1617C139.825 11.5702 139.677 10.8718 139.677 10.0667C139.677 8.80151 140.03 7.80743 140.737 7.08446C141.443 6.36149 142.354 6 143.471 6C144.67 6 145.631 6.40256 146.354 7.20769C147.076 8.01282 147.438 9.07263 147.438 10.3871V11.0033C147.438 11.1676 147.356 11.2498 147.191 11.2498H146.378C146.214 11.2498 146.132 11.1676 146.132 11.0033V10.3871C146.132 9.41768 145.886 8.6372 145.393 8.04568C144.917 7.43773 144.276 7.13375 143.471 7.13375C142.749 7.13375 142.149 7.39665 141.673 7.92244C141.197 8.43181 140.958 9.15478 140.958 10.0914C140.958 10.65 141.057 11.1347 141.254 11.5455C141.468 11.9563 141.763 12.3424 142.141 12.7039C142.535 13.0654 143.126 13.5419 143.915 14.1334C144.884 14.8564 145.606 15.4397 146.083 15.8833C146.559 16.327 146.92 16.8117 147.167 17.3375C147.429 17.8633 147.561 18.4959 147.561 19.2353C147.561 20.5826 147.191 21.6589 146.452 22.464C145.73 23.2527 144.785 23.6471 143.619 23.6471Z" fill="black"/>
<path d="M40.5823 23.4499C40.4181 23.4499 40.3359 23.3677 40.3359 23.2034V6.44364C40.3359 6.27933 40.4181 6.19717 40.5823 6.19717H41.3953C41.5595 6.19717 41.6416 6.27933 41.6416 6.44364V22.1929C41.6416 22.2586 41.6745 22.2915 41.7402 22.2915H47.505C47.6692 22.2915 47.7513 22.3736 47.7513 22.538V23.2034C47.7513 23.3677 47.6692 23.4499 47.505 23.4499H40.5823Z" stroke="black" stroke-width="0.4" mask="url(#path-2-outside-1_1165_39382)"/>
<path d="M57.4456 23.4499C57.2978 23.4499 57.2074 23.3759 57.1746 23.2281L56.5094 19.9993C56.5094 19.9665 56.493 19.9418 56.4601 19.9254C56.4437 19.909 56.4191 19.9008 56.3862 19.9008H51.5576C51.5247 19.9008 51.4919 19.909 51.459 19.9254C51.4426 19.9418 51.4344 19.9665 51.4344 19.9993L50.7692 23.2281C50.7528 23.3759 50.6625 23.4499 50.4982 23.4499H49.6853C49.6031 23.4499 49.5374 23.4252 49.4882 23.3759C49.4553 23.3267 49.4471 23.2609 49.4635 23.1788L53.2082 6.41899C53.241 6.27111 53.3314 6.19717 53.4792 6.19717H54.4646C54.6289 6.19717 54.7192 6.27111 54.7356 6.41899L58.5049 23.1788V23.2281C58.5049 23.3759 58.431 23.4499 58.2832 23.4499H57.4456ZM51.7054 18.7177C51.7054 18.7834 51.73 18.8163 51.7793 18.8163H56.1399C56.1891 18.8163 56.2138 18.7834 56.2138 18.7177L54.0212 8.29215C54.0048 8.24285 53.9883 8.21821 53.9719 8.21821C53.9555 8.21821 53.9391 8.24285 53.9226 8.29215L51.7054 18.7177Z" stroke="black" stroke-width="0.4" mask="url(#path-2-outside-1_1165_39382)"/>
<path d="M59.9246 23.4499C59.7603 23.4499 59.6782 23.3677 59.6782 23.2034V22.4394C59.6782 22.3244 59.6946 22.2258 59.7275 22.1436L65.9357 7.4788C65.9521 7.44594 65.9521 7.42129 65.9357 7.40486C65.9193 7.372 65.8947 7.35557 65.8618 7.35557H59.9246C59.7603 7.35557 59.6782 7.27341 59.6782 7.1091V6.44364C59.6782 6.27933 59.7603 6.19717 59.9246 6.19717H67.1182C67.2825 6.19717 67.3646 6.27933 67.3646 6.44364V7.20769C67.3646 7.32271 67.3482 7.42129 67.3153 7.50345L61.1317 22.1683C61.1153 22.2011 61.1153 22.234 61.1317 22.2668C61.1481 22.2833 61.1728 22.2915 61.2056 22.2915H67.1182C67.2825 22.2915 67.3646 22.3736 67.3646 22.538V23.2034C67.3646 23.3677 67.2825 23.4499 67.1182 23.4499H59.9246Z" stroke="black" stroke-width="0.4" mask="url(#path-2-outside-1_1165_39382)"/>
<path d="M73.0709 23.4499C72.9067 23.4499 72.8245 23.3677 72.8245 23.2034V15.5629C72.8245 15.4972 72.8163 15.4561 72.7999 15.4397L69.4001 6.49293L69.3755 6.39435C69.3755 6.2629 69.4494 6.19717 69.5972 6.19717H70.4595C70.6073 6.19717 70.7058 6.2629 70.7551 6.39435L73.4158 13.9362C73.4322 13.9691 73.4569 13.9855 73.4897 13.9855C73.5226 13.9855 73.5472 13.9691 73.5636 13.9362L76.1997 6.39435C76.2489 6.2629 76.3475 6.19717 76.4953 6.19717H77.3575C77.4397 6.19717 77.4971 6.23004 77.53 6.29576C77.5793 6.34505 77.5875 6.41078 77.5546 6.49293L74.1549 15.4397C74.1385 15.4561 74.1302 15.4972 74.1302 15.5629V23.2034C74.1302 23.3677 74.0481 23.4499 73.8839 23.4499H73.0709Z" stroke="black" stroke-width="0.4" mask="url(#path-2-outside-1_1165_39382)"/>
<path d="M83.8687 23.6471C82.6698 23.6471 81.7008 23.2774 80.9617 22.538C80.239 21.7821 79.8777 20.7798 79.8777 19.5311V10.0667C79.8777 8.83437 80.239 7.8485 80.9617 7.1091C81.7008 6.3697 82.6698 6 83.8687 6C85.0841 6 86.0531 6.3697 86.7758 7.1091C87.5149 7.8485 87.8844 8.83437 87.8844 10.0667V10.535C87.8844 10.6172 87.8598 10.6829 87.8105 10.7322C87.7612 10.7815 87.7037 10.8061 87.638 10.8061L86.825 10.8554C86.6608 10.8554 86.5787 10.7732 86.5787 10.6089V9.99277C86.5787 9.13835 86.3323 8.45646 85.8396 7.94709C85.3469 7.42129 84.6899 7.1584 83.8687 7.1584C83.064 7.1584 82.4152 7.42129 81.9225 7.94709C81.4298 8.45646 81.1834 9.13835 81.1834 9.99277V19.6296C81.1834 20.4841 81.4298 21.1742 81.9225 21.7C82.4152 22.2258 83.064 22.4887 83.8687 22.4887C84.6735 22.4887 85.3223 22.2258 85.815 21.7C86.3241 21.1742 86.5787 20.4841 86.5787 19.6296V19.0628C86.5787 18.8985 86.6608 18.8163 86.825 18.8163L87.638 18.8656C87.8023 18.8656 87.8844 18.9477 87.8844 19.1121V19.5311C87.8844 20.7798 87.5149 21.7821 86.7758 22.538C86.0531 23.2774 85.0841 23.6471 83.8687 23.6471Z" stroke="black" stroke-width="0.4" mask="url(#path-2-outside-1_1165_39382)"/>
<path d="M97.4549 23.4499C97.3071 23.4499 97.2167 23.3759 97.1839 23.2281L96.5187 19.9993C96.5187 19.9665 96.5023 19.9418 96.4694 19.9254C96.453 19.909 96.4284 19.9008 96.3955 19.9008H91.5669C91.534 19.9008 91.5012 19.909 91.4683 19.9254C91.4519 19.9418 91.4437 19.9665 91.4437 19.9993L90.7785 23.2281C90.7621 23.3759 90.6718 23.4499 90.5075 23.4499H89.6946C89.6124 23.4499 89.5467 23.4252 89.4975 23.3759C89.4646 23.3267 89.4564 23.2609 89.4728 23.1788L93.2175 6.41899C93.2503 6.27111 93.3407 6.19717 93.4885 6.19717H94.4739C94.6382 6.19717 94.7285 6.27111 94.7449 6.41899L98.5142 23.1788V23.2281C98.5142 23.3759 98.4403 23.4499 98.2925 23.4499H97.4549ZM91.7147 18.7177C91.7147 18.7834 91.7393 18.8163 91.7886 18.8163H96.1492C96.1984 18.8163 96.2231 18.7834 96.2231 18.7177L94.0305 8.29215C94.014 8.24285 93.9976 8.21821 93.9812 8.21821C93.9648 8.21821 93.9484 8.24285 93.9319 8.29215L91.7147 18.7177Z" stroke="black" stroke-width="0.4" mask="url(#path-2-outside-1_1165_39382)"/>
<path d="M106.325 6.19717C106.489 6.19717 106.571 6.27933 106.571 6.44364V7.1091C106.571 7.27341 106.489 7.35557 106.325 7.35557H103.049C102.983 7.35557 102.95 7.38843 102.95 7.45416V23.2034C102.95 23.3677 102.868 23.4499 102.704 23.4499H101.891C101.726 23.4499 101.644 23.3677 101.644 23.2034V7.45416C101.644 7.38843 101.611 7.35557 101.546 7.35557H98.4663C98.302 7.35557 98.2199 7.27341 98.2199 7.1091V6.44364C98.2199 6.27933 98.302 6.19717 98.4663 6.19717H106.325Z" stroke="black" stroke-width="0.4" mask="url(#path-2-outside-1_1165_39382)"/>
<path d="M109.462 23.4499C109.298 23.4499 109.215 23.3677 109.215 23.2034V6.44364C109.215 6.27933 109.298 6.19717 109.462 6.19717H110.275C110.439 6.19717 110.521 6.27933 110.521 6.44364V22.1929C110.521 22.2586 110.554 22.2915 110.62 22.2915H116.384C116.549 22.2915 116.631 22.3736 116.631 22.538V23.2034C116.631 23.3677 116.549 23.4499 116.384 23.4499H109.462Z" stroke="black" stroke-width="0.4" mask="url(#path-2-outside-1_1165_39382)"/>
<path d="M126.325 23.4499C126.177 23.4499 126.087 23.3759 126.054 23.2281L125.389 19.9993C125.389 19.9665 125.372 19.9418 125.34 19.9254C125.323 19.909 125.299 19.9008 125.266 19.9008H120.437C120.404 19.9008 120.371 19.909 120.339 19.9254C120.322 19.9418 120.314 19.9665 120.314 19.9993L119.649 23.2281C119.632 23.3759 119.542 23.4499 119.378 23.4499H118.565C118.483 23.4499 118.417 23.4252 118.368 23.3759C118.335 23.3267 118.327 23.2609 118.343 23.1788L122.088 6.41899C122.121 6.27111 122.211 6.19717 122.359 6.19717H123.344C123.508 6.19717 123.599 6.27111 123.615 6.41899L127.384 23.1788V23.2281C127.384 23.3759 127.311 23.4499 127.163 23.4499H126.325ZM120.585 18.7177C120.585 18.7834 120.61 18.8163 120.659 18.8163H125.019C125.069 18.8163 125.093 18.7834 125.093 18.7177L122.901 8.29215C122.884 8.24285 122.868 8.21821 122.851 8.21821C122.835 8.21821 122.819 8.24285 122.802 8.29215L120.585 18.7177Z" stroke="black" stroke-width="0.4" mask="url(#path-2-outside-1_1165_39382)"/>
<path d="M137.673 18.7917C137.689 20.2705 137.312 21.4206 136.54 22.2422C135.768 23.0473 134.717 23.4499 133.386 23.4499H129.863C129.699 23.4499 129.617 23.3677 129.617 23.2034V6.44364C129.617 6.27933 129.699 6.19717 129.863 6.19717H133.239C134.602 6.19717 135.669 6.5833 136.441 7.35557C137.213 8.12783 137.599 9.22872 137.599 10.6582C137.599 12.5478 136.893 13.8212 135.48 14.4785C135.448 14.4949 135.423 14.5113 135.406 14.5278C135.406 14.5442 135.415 14.5606 135.431 14.5771C136.154 14.9385 136.704 15.4808 137.082 16.2037C137.476 16.9103 137.673 17.7729 137.673 18.7917ZM131.021 7.35557C130.956 7.35557 130.923 7.38843 130.923 7.45416V13.9116C130.923 13.9773 130.956 14.0102 131.021 14.0102H133.263C134.232 14.0102 134.979 13.7226 135.505 13.1476C136.047 12.5725 136.318 11.7673 136.318 10.7322C136.318 9.66415 136.047 8.83437 135.505 8.24285C134.963 7.65133 134.216 7.35557 133.263 7.35557H131.021ZM133.312 22.2668C134.281 22.2668 135.029 21.9547 135.554 21.3303C136.096 20.7059 136.367 19.8268 136.367 18.6931C136.367 17.5429 136.096 16.6474 135.554 16.0066C135.012 15.3658 134.265 15.0454 133.312 15.0454H131.021C130.956 15.0454 130.923 15.0782 130.923 15.1439V22.1683C130.923 22.234 130.956 22.2668 131.021 22.2668H133.312Z" stroke="black" stroke-width="0.4" mask="url(#path-2-outside-1_1165_39382)"/>
<path d="M143.619 23.6471C142.453 23.6471 141.509 23.2527 140.786 22.464C140.063 21.6589 139.702 20.6155 139.702 19.3339V18.8163C139.702 18.652 139.784 18.5698 139.948 18.5698H140.737C140.901 18.5698 140.983 18.652 140.983 18.8163V19.2846C140.983 20.254 141.221 21.0345 141.697 21.626C142.19 22.2175 142.823 22.5133 143.594 22.5133C144.366 22.5133 145.007 22.2258 145.516 21.6507C146.025 21.0756 146.28 20.328 146.28 19.4078C146.28 18.7999 146.157 18.2741 145.91 17.8304C145.68 17.3868 145.376 17.0089 144.999 16.6967C144.637 16.3681 144.038 15.8833 143.2 15.2425C142.346 14.6017 141.689 14.0759 141.229 13.6651C140.786 13.2379 140.416 12.7368 140.121 12.1617C139.825 11.5702 139.677 10.8718 139.677 10.0667C139.677 8.80151 140.03 7.80743 140.737 7.08446C141.443 6.36149 142.354 6 143.471 6C144.67 6 145.631 6.40256 146.354 7.20769C147.076 8.01282 147.438 9.07263 147.438 10.3871V11.0033C147.438 11.1676 147.356 11.2498 147.191 11.2498H146.378C146.214 11.2498 146.132 11.1676 146.132 11.0033V10.3871C146.132 9.41768 145.886 8.6372 145.393 8.04568C144.917 7.43773 144.276 7.13375 143.471 7.13375C142.749 7.13375 142.149 7.39665 141.673 7.92244C141.197 8.43181 140.958 9.15478 140.958 10.0914C140.958 10.65 141.057 11.1347 141.254 11.5455C141.468 11.9563 141.763 12.3424 142.141 12.7039C142.535 13.0654 143.126 13.5419 143.915 14.1334C144.884 14.8564 145.606 15.4397 146.083 15.8833C146.559 16.327 146.92 16.8117 147.167 17.3375C147.429 17.8633 147.561 18.4959 147.561 19.2353C147.561 20.5826 147.191 21.6589 146.452 22.464C145.73 23.2527 144.785 23.6471 143.619 23.6471Z" stroke="black" stroke-width="0.4" mask="url(#path-2-outside-1_1165_39382)"/>
</svg>
