<svg width="223" height="40" viewBox="0 0 223 40" fill="none" xmlns="http://www.w3.org/2000/svg">
<path d="M55.8629 28.2286V12.2286H58.8343V25.7143H67.2V28.2286H55.8629Z" fill="black"/>
<path d="M67.3054 28.2286L74.5054 12.2286H77.4311L84.6539 28.2286H81.5454L75.3511 13.8057H76.5396L70.3682 28.2286H67.3054ZM70.6196 24.5257L71.4196 22.1943H80.0596L80.8596 24.5257H70.6196Z" fill="black"/>
<path d="M85.4773 28.2286V26.24L95.8087 13.6229L96.1516 14.7429H85.6373V12.2286H98.8259V14.2171L88.4945 26.8343L88.1288 25.7143H99.123V28.2286H85.4773Z" fill="black"/>
<path d="M105.776 28.2286V21.8971L106.439 23.7257L99.4907 12.2286H102.668L108.245 21.4857H106.462L112.085 12.2286H115.011L108.062 23.7257L108.748 21.8971V28.2286H105.776Z" fill="black"/>
<path d="M123.67 28.4571C122.451 28.4571 121.316 28.259 120.265 27.8629C119.228 27.4514 118.322 26.88 117.545 26.1486C116.783 25.4019 116.188 24.5257 115.762 23.52C115.335 22.5143 115.122 21.4171 115.122 20.2286C115.122 19.04 115.335 17.9429 115.762 16.9371C116.188 15.9314 116.79 15.0629 117.567 14.3314C118.345 13.5848 119.251 13.0133 120.288 12.6171C121.324 12.2057 122.459 12 123.693 12C125.004 12 126.2 12.2286 127.282 12.6857C128.364 13.1276 129.278 13.7905 130.025 14.6743L128.105 16.48C127.526 15.8552 126.878 15.3905 126.162 15.0857C125.446 14.7657 124.668 14.6057 123.83 14.6057C122.992 14.6057 122.223 14.7429 121.522 15.0171C120.836 15.2914 120.234 15.68 119.716 16.1829C119.213 16.6857 118.817 17.28 118.527 17.9657C118.253 18.6514 118.116 19.4057 118.116 20.2286C118.116 21.0514 118.253 21.8057 118.527 22.4914C118.817 23.1771 119.213 23.7714 119.716 24.2743C120.234 24.7771 120.836 25.1657 121.522 25.44C122.223 25.7143 122.992 25.8514 123.83 25.8514C124.668 25.8514 125.446 25.699 126.162 25.3943C126.878 25.0743 127.526 24.5943 128.105 23.9543L130.025 25.7829C129.278 26.6514 128.364 27.3143 127.282 27.7714C126.2 28.2286 124.996 28.4571 123.67 28.4571Z" fill="black"/>
<path d="M130.274 28.2286L137.474 12.2286H140.4L147.623 28.2286H144.514L138.32 13.8057H139.508L133.337 28.2286H130.274ZM133.588 24.5257L134.388 22.1943H143.028L143.828 24.5257H133.588Z" fill="black"/>
<path d="M152.1 28.2286V14.7429H146.797V12.2286H160.374V14.7429H155.071V28.2286H152.1Z" fill="black"/>
<path d="M162.604 28.2286V12.2286H165.575V25.7143H173.941V28.2286H162.604Z" fill="black"/>
<path d="M174.046 28.2286L181.246 12.2286H184.172L191.395 28.2286H188.286L182.092 13.8057H183.281L177.109 28.2286H174.046ZM177.361 24.5257L178.161 22.1943H186.801L187.601 24.5257H177.361Z" fill="black"/>
<path d="M193.43 28.2286V12.2286H200.927C202.847 12.2286 204.31 12.6095 205.316 13.3714C206.321 14.1181 206.824 15.1238 206.824 16.3886C206.824 17.2419 206.626 17.9733 206.23 18.5829C205.834 19.1771 205.3 19.6419 204.63 19.9771C203.975 20.2971 203.258 20.4571 202.481 20.4571L202.893 19.6343C203.792 19.6343 204.599 19.8019 205.316 20.1371C206.032 20.4571 206.596 20.9295 207.007 21.5543C207.434 22.179 207.647 22.9562 207.647 23.8857C207.647 25.2571 207.121 26.3238 206.07 27.0857C205.018 27.8476 203.456 28.2286 201.384 28.2286H193.43ZM196.401 25.8971H201.201C202.314 25.8971 203.167 25.7143 203.761 25.3486C204.356 24.9829 204.653 24.3962 204.653 23.5886C204.653 22.7962 204.356 22.2171 203.761 21.8514C203.167 21.4705 202.314 21.28 201.201 21.28H196.173V18.9714H200.607C201.643 18.9714 202.436 18.7886 202.984 18.4229C203.548 18.0571 203.83 17.5086 203.83 16.7771C203.83 16.0305 203.548 15.4743 202.984 15.1086C202.436 14.7429 201.643 14.56 200.607 14.56H196.401V25.8971Z" fill="black"/>
<path d="M215.778 28.4571C214.529 28.4571 213.333 28.2819 212.19 27.9314C211.047 27.5657 210.14 27.101 209.47 26.5371L210.498 24.2286C211.138 24.7314 211.931 25.1505 212.875 25.4857C213.82 25.821 214.788 25.9886 215.778 25.9886C216.616 25.9886 217.294 25.8971 217.813 25.7143C218.331 25.5314 218.712 25.2876 218.955 24.9829C219.199 24.6629 219.321 24.3048 219.321 23.9086C219.321 23.421 219.146 23.0324 218.795 22.7429C218.445 22.4381 217.988 22.2019 217.424 22.0343C216.875 21.8514 216.258 21.6838 215.573 21.5314C214.902 21.379 214.224 21.2038 213.538 21.0057C212.868 20.7924 212.251 20.5257 211.687 20.2057C211.138 19.8705 210.689 19.4286 210.338 18.88C209.988 18.3314 209.813 17.6305 209.813 16.7771C209.813 15.9086 210.041 15.1162 210.498 14.4C210.971 13.6686 211.679 13.0895 212.624 12.6629C213.584 12.221 214.795 12 216.258 12C217.218 12 218.171 12.1219 219.115 12.3657C220.06 12.6095 220.883 12.96 221.584 13.4171L220.647 15.7257C219.931 15.299 219.192 14.9867 218.43 14.7886C217.668 14.5752 216.936 14.4686 216.235 14.4686C215.412 14.4686 214.742 14.5676 214.224 14.7657C213.721 14.9638 213.348 15.2229 213.104 15.5429C212.875 15.8629 212.761 16.2286 212.761 16.64C212.761 17.1276 212.929 17.5238 213.264 17.8286C213.614 18.1181 214.064 18.3467 214.613 18.5143C215.176 18.6819 215.801 18.8495 216.487 19.0171C217.173 19.1695 217.851 19.3448 218.521 19.5429C219.207 19.741 219.824 20 220.373 20.32C220.936 20.64 221.386 21.0743 221.721 21.6229C222.072 22.1714 222.247 22.8648 222.247 23.7029C222.247 24.5562 222.011 25.3486 221.538 26.08C221.081 26.7962 220.373 27.3752 219.413 27.8171C218.453 28.2438 217.241 28.4571 215.778 28.4571Z" fill="black"/>
<path d="M0 10H10V20H0V10Z" fill="black"/>
<path d="M0 20H10V30H0V20Z" fill="black"/>
<path d="M10 20H20V30H10V20Z" fill="black"/>
<path d="M10 30H20V40H10V30Z" fill="black"/>
<path d="M20 30H30V40H20V30Z" fill="black"/>
<path d="M20 10H30V20H20V10Z" fill="black"/>
<path d="M20 0H30V10H20V0Z" fill="black"/>
<path d="M30 10H40V20H30V10Z" fill="black"/>
</svg>
