<svg width="195" height="35" viewBox="0 0 195 35" fill="none" xmlns="http://www.w3.org/2000/svg">
<path d="M48.88 24.7V10.7H51.48V22.5H58.8V24.7H48.88Z" fill="white"/>
<path d="M58.8922 24.7L65.1922 10.7H67.7522L74.0722 24.7H71.3522L65.9322 12.08H66.9722L61.5722 24.7H58.8922ZM61.7922 21.46L62.4922 19.42H70.0522L70.7522 21.46H61.7922Z" fill="white"/>
<path d="M74.7927 24.7V22.96L83.8327 11.92L84.1327 12.9H74.9327V10.7H86.4727V12.44L77.4327 23.48L77.1127 22.5H86.7327V24.7H74.7927Z" fill="white"/>
<path d="M92.5544 24.7V19.16L93.1344 20.76L87.0544 10.7H89.8344L94.7144 18.8H93.1544L98.0744 10.7H100.634L94.5544 20.76L95.1544 19.16V24.7H92.5544Z" fill="white"/>
<path d="M108.212 24.9C107.145 24.9 106.152 24.7267 105.232 24.38C104.325 24.02 103.532 23.52 102.852 22.88C102.185 22.2267 101.665 21.46 101.292 20.58C100.918 19.7 100.732 18.74 100.732 17.7C100.732 16.66 100.918 15.7 101.292 14.82C101.665 13.94 102.192 13.18 102.872 12.54C103.552 11.8867 104.345 11.3867 105.252 11.04C106.158 10.68 107.152 10.5 108.232 10.5C109.378 10.5 110.425 10.7 111.372 11.1C112.318 11.4867 113.118 12.0667 113.772 12.84L112.092 14.42C111.585 13.8733 111.018 13.4667 110.392 13.2C109.765 12.92 109.085 12.78 108.352 12.78C107.618 12.78 106.945 12.9 106.332 13.14C105.732 13.38 105.205 13.72 104.752 14.16C104.312 14.6 103.965 15.12 103.712 15.72C103.472 16.32 103.352 16.98 103.352 17.7C103.352 18.42 103.472 19.08 103.712 19.68C103.965 20.28 104.312 20.8 104.752 21.24C105.205 21.68 105.732 22.02 106.332 22.26C106.945 22.5 107.618 22.62 108.352 22.62C109.085 22.62 109.765 22.4867 110.392 22.22C111.018 21.94 111.585 21.52 112.092 20.96L113.772 22.56C113.118 23.32 112.318 23.9 111.372 24.3C110.425 24.7 109.372 24.9 108.212 24.9Z" fill="white"/>
<path d="M113.99 24.7L120.29 10.7H122.85L129.17 24.7H126.45L121.03 12.08H122.07L116.67 24.7H113.99ZM116.89 21.46L117.59 19.42H125.15L125.85 21.46H116.89Z" fill="white"/>
<path d="M133.087 24.7V12.9H128.447V10.7H140.327V12.9H135.687V24.7H133.087Z" fill="white"/>
<path d="M142.278 24.7V10.7H144.878V22.5H152.198V24.7H142.278Z" fill="white"/>
<path d="M152.291 24.7L158.591 10.7H161.151L167.471 24.7H164.751L159.331 12.08H160.371L154.971 24.7H152.291ZM155.191 21.46L155.891 19.42H163.451L164.151 21.46H155.191Z" fill="white"/>
<path d="M169.251 24.7V10.7H175.811C177.491 10.7 178.771 11.0333 179.651 11.7C180.531 12.3533 180.971 13.2333 180.971 14.34C180.971 15.0867 180.798 15.7267 180.451 16.26C180.104 16.78 179.638 17.1867 179.051 17.48C178.478 17.76 177.851 17.9 177.171 17.9L177.531 17.18C178.318 17.18 179.024 17.3267 179.651 17.62C180.278 17.9 180.771 18.3133 181.131 18.86C181.504 19.4067 181.691 20.0867 181.691 20.9C181.691 22.1 181.231 23.0333 180.311 23.7C179.391 24.3667 178.024 24.7 176.211 24.7H169.251ZM171.851 22.66H176.051C177.024 22.66 177.771 22.5 178.291 22.18C178.811 21.86 179.071 21.3467 179.071 20.64C179.071 19.9467 178.811 19.44 178.291 19.12C177.771 18.7867 177.024 18.62 176.051 18.62H171.651V16.6H175.531C176.438 16.6 177.131 16.44 177.611 16.12C178.104 15.8 178.351 15.32 178.351 14.68C178.351 14.0267 178.104 13.54 177.611 13.22C177.131 12.9 176.438 12.74 175.531 12.74H171.851V22.66Z" fill="white"/>
<path d="M188.806 24.9C187.713 24.9 186.666 24.7467 185.666 24.44C184.666 24.12 183.873 23.7133 183.286 23.22L184.186 21.2C184.746 21.64 185.439 22.0067 186.266 22.3C187.093 22.5933 187.939 22.74 188.806 22.74C189.539 22.74 190.133 22.66 190.586 22.5C191.039 22.34 191.373 22.1267 191.586 21.86C191.799 21.58 191.906 21.2667 191.906 20.92C191.906 20.4933 191.753 20.1533 191.446 19.9C191.139 19.6333 190.739 19.4267 190.246 19.28C189.766 19.12 189.226 18.9733 188.626 18.84C188.039 18.7067 187.446 18.5533 186.846 18.38C186.259 18.1933 185.719 17.96 185.226 17.68C184.746 17.3867 184.353 17 184.046 16.52C183.739 16.04 183.586 15.4267 183.586 14.68C183.586 13.92 183.786 13.2267 184.186 12.6C184.599 11.96 185.219 11.4533 186.046 11.08C186.886 10.6933 187.946 10.5 189.226 10.5C190.066 10.5 190.899 10.6067 191.726 10.82C192.553 11.0333 193.273 11.34 193.886 11.74L193.066 13.76C192.439 13.3867 191.793 13.1133 191.126 12.94C190.459 12.7533 189.819 12.66 189.206 12.66C188.486 12.66 187.899 12.7467 187.446 12.92C187.006 13.0933 186.679 13.32 186.466 13.6C186.266 13.88 186.166 14.2 186.166 14.56C186.166 14.9867 186.313 15.3333 186.606 15.6C186.913 15.8533 187.306 16.0533 187.786 16.2C188.279 16.3467 188.826 16.4933 189.426 16.64C190.026 16.7733 190.619 16.9267 191.206 17.1C191.806 17.2733 192.346 17.5 192.826 17.78C193.319 18.06 193.713 18.44 194.006 18.92C194.313 19.4 194.466 20.0067 194.466 20.74C194.466 21.4867 194.259 22.18 193.846 22.82C193.446 23.4467 192.826 23.9533 191.986 24.34C191.146 24.7133 190.086 24.9 188.806 24.9Z" fill="white"/>
<path d="M0 8.75H8.75V17.5H0V8.75Z" fill="white"/>
<path d="M0 17.5H8.75V26.25H0V17.5Z" fill="white"/>
<path d="M8.75 17.5H17.5V26.25H8.75V17.5Z" fill="white"/>
<path d="M8.75 26.25H17.5V35H8.75V26.25Z" fill="white"/>
<path d="M17.5 26.25H26.25V35H17.5V26.25Z" fill="white"/>
<path d="M17.5 8.75H26.25V17.5H17.5V8.75Z" fill="white"/>
<path d="M17.5 0H26.25V8.75H17.5V0Z" fill="white"/>
<path d="M26.25 8.75H35V17.5H26.25V8.75Z" fill="white"/>
</svg>
