<svg width="188" height="30" viewBox="0 0 188 30" fill="none" xmlns="http://www.w3.org/2000/svg">
<g clip-path="url(#clip0_987_2)">
<path fill-rule="evenodd" clip-rule="evenodd" d="M10.7656 1.13908C4.84202 2.96087 0.536133 8.47754 0.536133 15.0002C0.536133 22.6392 6.44217 28.8986 13.936 29.4585L16.5191 11.5339C16.646 10.6535 17.4001 10.0002 18.2892 10.0002H19.9324C21.0217 10.0002 21.858 10.9659 21.7026 12.0443L19.2782 28.8671C25.2115 27.0512 29.5264 21.5297 29.5264 15.0002C29.5264 7.35509 23.611 1.09199 16.1088 0.540527L13.5255 18.4665C13.3986 19.3469 12.6445 20.0002 11.7554 20.0002H10.1122C9.02294 20.0002 8.18666 19.0345 8.34207 17.956L10.7656 1.13908Z" fill="#FF7043"/>
<mask id="mask0_987_2" style="mask-type:luminance" maskUnits="userSpaceOnUse" x="0" y="-1" width="31" height="32">
<path d="M30.0633 -0.0141602H0V30.0037H30.0633V-0.0141602Z" fill="white"/>
<path fill-rule="evenodd" clip-rule="evenodd" d="M10.7656 1.13908C4.84202 2.96087 0.536133 8.47754 0.536133 15.0002C0.536133 22.6392 6.44217 28.8986 13.936 29.4585L16.5191 11.5339C16.646 10.6535 17.4001 10.0002 18.2892 10.0002H19.9324C21.0217 10.0002 21.858 10.9659 21.7026 12.0443L19.2782 28.8671C25.2115 27.0512 29.5264 21.5297 29.5264 15.0002C29.5264 7.35509 23.611 1.09199 16.1088 0.540527L13.5255 18.4665C13.3986 19.3469 12.6445 20.0002 11.7554 20.0002H10.1122C9.02294 20.0002 8.18666 19.0345 8.34207 17.956L10.7656 1.13908Z" fill="black"/>
</mask>
<g mask="url(#mask0_987_2)">
<path d="M10.766 1.13915L11.297 1.21572C11.3232 1.03372 11.2545 0.850961 11.1148 0.731405C10.9752 0.611847 10.784 0.572138 10.6083 0.626179L10.766 1.13915ZM13.9364 29.4586L13.8964 29.9938C14.1777 30.0147 14.4272 29.8144 14.4674 29.5351L13.9364 29.4586ZM19.2786 28.8671L18.7476 28.7906C18.7213 28.9723 18.79 29.155 18.9295 29.2747C19.069 29.3942 19.26 29.4341 19.4356 29.3802L19.2786 28.8671ZM16.1092 0.5406L16.1485 0.00536942C15.8675 -0.0152884 15.6184 0.185043 15.5782 0.464029L16.1092 0.5406ZM1.07305 15.0002C1.07305 8.71985 5.21889 3.40663 10.9237 1.65213L10.6083 0.626179C4.46591 2.51527 0 8.23537 0 15.0002H1.07305ZM13.9764 28.9233C6.76045 28.3841 1.07305 22.3562 1.07305 15.0002H0C0 22.9222 6.12467 29.4129 13.8964 29.9938L13.9764 28.9233ZM14.4674 29.5351L17.0506 11.6105L15.9885 11.4573L13.4053 29.382L14.4674 29.5351ZM17.0506 11.6105C17.1394 10.9943 17.6672 10.5369 18.2896 10.5369V9.46357C17.1338 9.46357 16.1534 10.313 15.9885 11.4573L17.0506 11.6105ZM18.2896 10.5369H19.9328V9.46357H18.2896V10.5369ZM19.9328 10.5369C20.6954 10.5369 21.2807 11.2129 21.172 11.9678L22.234 12.121C22.4361 10.719 21.3489 9.46357 19.9328 9.46357V10.5369ZM21.172 11.9678L18.7476 28.7906L19.8096 28.9437L22.234 12.121L21.172 11.9678ZM28.9902 15.0002C28.9902 21.2872 24.8357 26.6051 19.1216 28.3539L19.4356 29.3802C25.588 27.4972 30.0633 21.7722 30.0633 15.0002H28.9902ZM16.0699 1.07583C23.294 1.60684 28.9902 7.63838 28.9902 15.0002H30.0633C30.0633 7.07196 23.929 0.577283 16.1485 0.00536942L16.0699 1.07583ZM15.5782 0.464029L12.9948 18.39L14.0569 18.5432L16.6403 0.617169L15.5782 0.464029ZM12.9948 18.39C12.906 19.0061 12.3782 19.4636 11.7558 19.4636V20.5369C12.9117 20.5369 13.892 19.6875 14.0569 18.5432L12.9948 18.39ZM11.7558 19.4636H10.1126V20.5369H11.7558V19.4636ZM10.1126 19.4636C9.35011 19.4636 8.76471 18.7875 8.8735 18.0326L7.81143 17.8795C7.60939 19.2815 8.69655 20.5369 10.1126 20.5369V19.4636ZM8.8735 18.0326L11.297 1.21572L10.235 1.06258L7.81143 17.8795L8.8735 18.0326Z" fill="#FF7043"/>
</g>
</g>
<g clip-path="url(#clip1_987_2)">
<path d="M40.505 22.3734C39.9807 22.3734 39.5557 21.9484 39.5557 21.4241V0.949367C39.5557 0.425044 39.9807 0 40.505 0H42.4671C42.9914 0 43.4164 0.425047 43.4164 0.949367V21.4241C43.4164 21.9484 42.9914 22.3734 42.4671 22.3734H40.505Z" fill="#FF7043"/>
<path d="M50.2591 22.5948C49.4786 22.5948 48.7401 22.4893 48.0439 22.2783C47.3477 22.0673 46.7254 21.7614 46.1768 21.3606C45.6283 20.9387 45.1853 20.4218 44.8477 19.81C44.5313 19.177 44.373 18.4387 44.373 17.5948C44.373 16.5188 44.584 15.6433 45.006 14.9682C45.4279 14.272 45.9975 13.7445 46.7148 13.3859C47.4532 13.0273 48.2866 12.7846 49.2148 12.6581C50.1431 12.5104 51.1136 12.4365 52.1262 12.4365H54.4363C54.9607 12.4365 55.3985 12.0083 55.3131 11.4909C55.2555 11.1421 55.1637 10.8244 55.0376 10.5378C54.8055 9.9893 54.4363 9.5568 53.93 9.24034C53.4448 8.92388 52.8119 8.76566 52.0313 8.76566C51.5249 8.76566 51.0503 8.82895 50.6072 8.95553C50.1853 9.061 49.8161 9.24034 49.4996 9.4935C49.381 9.58673 49.2759 9.69192 49.1845 9.80898C48.933 10.1311 48.5911 10.4112 48.1825 10.4112H46.0362C45.448 10.4112 44.9931 9.87616 45.1984 9.32499C45.353 8.91012 45.5525 8.53379 45.7971 8.19604C46.2612 7.56312 46.8203 7.04626 47.4743 6.6454C48.1494 6.24455 48.8878 5.9492 49.6895 5.75933C50.4912 5.54835 51.3034 5.44287 52.1262 5.44287C54.5524 5.44287 56.314 6.13907 57.411 7.53148C58.5292 8.92388 59.0882 10.8754 59.0882 13.3859V21.4239C59.0882 21.9482 58.6632 22.3733 58.1389 22.3733H56.1883C55.8987 22.3733 55.6605 22.1452 55.6477 21.8559C55.6247 21.3351 54.8818 21.0994 54.4652 21.4129C54.2653 21.5633 54.0552 21.6936 53.8351 21.8036C53.16 22.1412 52.506 22.3521 51.873 22.4365C51.2401 22.542 50.7022 22.5948 50.2591 22.5948ZM51.0186 19.4619C51.8625 19.4619 52.6115 19.3036 53.2655 18.9872C53.9195 18.6707 54.4363 18.2277 54.8161 17.6581C55.2169 17.0884 55.4174 16.4344 55.4174 15.696C55.4174 15.3989 55.1765 15.1581 54.8794 15.1581H52.3794C51.873 15.1581 51.3667 15.1792 50.8604 15.2214C50.3752 15.2425 49.9321 15.3268 49.5313 15.4745C49.1305 15.6011 48.8034 15.8015 48.5503 16.0758C48.3182 16.3501 48.2022 16.7403 48.2022 17.2467C48.2022 17.753 48.3287 18.1644 48.5819 18.4808C48.8562 18.7973 49.2043 19.0399 49.6262 19.2087C50.0693 19.3775 50.5334 19.4619 51.0186 19.4619Z" fill="#FF7043"/>
<path d="M60.8751 22.3735C60.3508 22.3735 59.9258 21.9485 59.9258 21.4241V19.7495C59.9258 19.5232 60.0066 19.3043 60.1537 19.1324L67.3833 10.6805C67.9102 10.0645 67.4725 9.11401 66.6619 9.11401H60.8751C60.3508 9.11401 59.9258 8.68898 59.9258 8.16464V6.64566C59.9258 6.12132 60.3508 5.69629 60.8751 5.69629H72.7422C73.2666 5.69629 73.6916 6.12132 73.6916 6.64566V8.28759C73.6916 8.51455 73.6102 8.73398 73.4625 8.90616L66.1775 17.3878C65.6488 18.0035 66.0862 18.9558 66.8977 18.9558H72.7422C73.2666 18.9558 73.6916 19.3808 73.6916 19.9051V21.4241C73.6916 21.9485 73.2666 22.3735 72.7422 22.3735H60.8751Z" fill="#FF7043"/>
<path d="M81.9425 30.0001C80.6555 30.0001 79.4001 29.8208 78.1767 29.4621C77.2005 29.1881 76.2796 28.7541 75.4147 28.1602C75.0571 27.9147 74.9463 27.4448 75.1242 27.049L75.7144 25.7344C75.9682 25.1694 76.6872 24.997 77.2236 25.3063C77.6628 25.5596 78.1283 25.774 78.6198 25.9495C79.5058 26.287 80.4761 26.4558 81.5312 26.4558C83.1976 26.4558 84.4109 26.0339 85.1704 25.19C85.9508 24.3461 86.3413 23.1963 86.3413 21.7406C86.3413 21.3361 85.7862 21.1251 85.4631 21.3689C85.3008 21.4914 85.1293 21.6047 84.9489 21.7089C84.4001 22.0254 83.8096 22.2575 83.1767 22.4051C82.5438 22.5528 81.9001 22.6267 81.2463 22.6267C79.6217 22.6267 78.3242 22.2997 77.3539 21.6457C76.4046 20.9706 75.7188 20.0528 75.297 18.8925C74.8748 17.7111 74.6641 16.3714 74.6641 14.8735V6.64566C74.6641 6.12132 75.0891 5.69629 75.6134 5.69629H77.5438C78.0679 5.69629 78.4932 6.12132 78.4932 6.64566V14.0191C78.4932 14.6098 78.5353 15.2111 78.6198 15.8229C78.7039 16.4347 78.8729 16.9938 79.1261 17.5001C79.3793 18.0064 79.7482 18.4178 80.2337 18.7343C80.74 19.0296 81.4046 19.1773 82.2274 19.1773C83.3033 19.1773 84.1365 18.9136 84.7274 18.3862C85.3179 17.8587 85.7188 17.1731 85.9299 16.3292C86.1619 15.4853 86.278 14.5887 86.278 13.6393V6.64566C86.278 6.12132 86.703 5.69629 87.2274 5.69629H89.1894C89.7134 5.69629 90.1387 6.12132 90.1387 6.64566V20.7912C90.1387 22.2047 89.991 23.4706 89.6957 24.5887C89.4001 25.7279 88.9255 26.6984 88.2717 27.5001C87.6175 28.3018 86.7736 28.9136 85.74 29.3355C84.7062 29.7786 83.4403 30.0001 81.9425 30.0001Z" fill="#FF7043"/>
<path d="M99.0098 22.5948C97.2798 22.5948 95.8241 22.2467 94.6428 21.5505C93.4611 20.8332 92.5646 19.8311 91.9529 18.5441C91.3409 17.2572 91.0352 15.7699 91.0352 14.0821C91.0352 12.3944 91.3516 10.907 91.9845 9.62009C92.6174 8.31208 93.5456 7.28885 94.7693 6.55047C95.9928 5.81208 97.4801 5.44287 99.2314 5.44287C100.518 5.44287 101.657 5.66439 102.649 6.10743C103.662 6.55047 104.474 7.20449 105.086 8.06945C105.532 8.66486 105.863 9.36528 106.079 10.1707C106.227 10.7254 105.778 11.234 105.204 11.234H103.186C102.772 11.234 102.419 10.9581 102.227 10.591C101.978 10.1137 101.644 9.74787 101.225 9.4935C100.655 9.11376 99.9697 8.92388 99.1681 8.92388C98.0921 8.92388 97.2377 9.18759 96.6048 9.71502C95.9928 10.2214 95.5497 10.8648 95.2757 11.6454C95.0013 12.426 94.8643 13.2382 94.8643 14.0821C94.8643 14.9682 95.0117 15.8015 95.3073 16.5821C95.6026 17.3416 96.056 17.9534 96.6681 18.4176C97.301 18.8817 98.113 19.1138 99.1048 19.1138C99.9064 19.1138 100.624 18.9344 101.257 18.5758C101.7 18.3324 102.037 17.987 102.267 17.5395C102.469 17.1482 102.833 16.8353 103.273 16.8353H105.382C105.949 16.8353 106.397 17.3327 106.252 17.8809C106.03 18.7165 105.663 19.4439 105.149 20.0631C104.453 20.907 103.567 21.5399 102.491 21.9619C101.415 22.3838 100.254 22.5948 99.0098 22.5948Z" fill="#FF7043"/>
<path d="M112.447 22.5948C111.666 22.5948 110.928 22.4893 110.231 22.2783C109.535 22.0673 108.913 21.7614 108.364 21.3606C107.816 20.9387 107.373 20.4218 107.035 19.81C106.719 19.177 106.561 18.4387 106.561 17.5948C106.561 16.5188 106.772 15.6433 107.193 14.9682C107.615 14.272 108.185 13.7445 108.902 13.3859C109.641 13.0273 110.474 12.7846 111.402 12.6581C112.33 12.5104 113.301 12.4365 114.314 12.4365H116.624C117.148 12.4365 117.586 12.0083 117.501 11.4909C117.443 11.1421 117.351 10.8244 117.225 10.5378C116.993 9.9893 116.624 9.5568 116.118 9.24034C115.632 8.92388 114.999 8.76566 114.219 8.76566C113.712 8.76566 113.238 8.82895 112.795 8.95553C112.373 9.061 112.004 9.24034 111.687 9.4935C111.568 9.58673 111.463 9.69192 111.372 9.80898C111.121 10.1311 110.779 10.4112 110.37 10.4112H108.224C107.636 10.4112 107.18 9.87616 107.386 9.32499C107.541 8.91012 107.74 8.53379 107.985 8.19604C108.449 7.56312 109.008 7.04626 109.662 6.6454C110.337 6.24455 111.075 5.9492 111.877 5.75933C112.679 5.54835 113.491 5.44287 114.314 5.44287C116.74 5.44287 118.501 6.13907 119.599 7.53148C120.717 8.92388 121.276 10.8754 121.276 13.3859V21.4239C121.276 21.9482 120.851 22.3733 120.326 22.3733H118.376C118.086 22.3733 117.848 22.1452 117.835 21.8559C117.812 21.3351 117.069 21.0994 116.653 21.4129C116.453 21.5633 116.243 21.6936 116.023 21.8036C115.348 22.1412 114.693 22.3521 114.061 22.4365C113.428 22.542 112.89 22.5948 112.447 22.5948ZM113.206 19.4619C114.05 19.4619 114.799 19.3036 115.453 18.9872C116.107 18.6707 116.624 18.2277 117.004 17.6581C117.405 17.0884 117.605 16.4344 117.605 15.696C117.605 15.3989 117.364 15.1581 117.067 15.1581H114.567C114.061 15.1581 113.554 15.1792 113.048 15.2214C112.563 15.2425 112.12 15.3268 111.719 15.4745C111.318 15.6011 110.991 15.8015 110.738 16.0758C110.506 16.3501 110.39 16.7403 110.39 17.2467C110.39 17.753 110.516 18.1644 110.769 18.4808C111.044 18.7973 111.392 19.0399 111.814 19.2087C112.257 19.3775 112.721 19.4619 113.206 19.4619Z" fill="#FF7043"/>
<path d="M129.392 22.5633C127.557 22.5633 126.217 22.057 125.373 21.0443C124.529 20.0317 124.107 18.6287 124.107 16.8355V10.0633C124.107 9.53899 123.682 9.11396 123.158 9.11396H122.493C121.969 9.11396 121.544 8.68893 121.544 8.16459V6.64561C121.544 6.12127 121.969 5.69624 122.493 5.69624H123.158C123.682 5.69624 124.107 5.27121 124.107 4.74687V1.96206C124.107 1.43774 124.532 1.0127 125.057 1.0127H127.019C127.543 1.0127 127.968 1.43774 127.968 1.96206V4.74687C127.968 5.27121 128.393 5.69624 128.917 5.69624H132.082C132.606 5.69624 133.031 6.12127 133.031 6.64561V8.16459C133.031 8.68893 132.606 9.11396 132.082 9.11396H128.917C128.393 9.11396 127.968 9.53899 127.968 10.0633V16.1076C127.968 16.6561 128.031 17.1519 128.158 17.595C128.284 18.038 128.516 18.3861 128.854 18.6393C129.191 18.8924 129.656 19.0296 130.246 19.0507C130.753 19.0507 131.185 18.9663 131.544 18.7975C132.014 18.5761 132.647 18.7195 132.857 19.1953L133.44 20.52C133.61 20.9058 133.51 21.3656 133.153 21.5892C132.907 21.7431 132.645 21.8779 132.367 21.9937C131.881 22.2047 131.386 22.3523 130.879 22.4367C130.373 22.5211 129.877 22.5633 129.392 22.5633Z" fill="#FF7043"/>
<path d="M136.399 22.3734C135.875 22.3734 135.449 21.9484 135.449 21.4241V0.949367C135.449 0.425044 135.875 0 136.399 0H138.361C138.885 0 139.31 0.425047 139.31 0.949367V21.4241C139.31 21.9484 138.885 22.3734 138.361 22.3734H136.399Z" fill="#00838F"/>
<path d="M146.153 22.5948C145.372 22.5948 144.634 22.4893 143.937 22.2783C143.241 22.0673 142.619 21.7614 142.07 21.3606C141.522 20.9387 141.079 20.4218 140.741 19.81C140.425 19.177 140.267 18.4387 140.267 17.5948C140.267 16.5188 140.478 15.6433 140.9 14.9682C141.321 14.272 141.891 13.7445 142.608 13.3859C143.347 13.0273 144.18 12.7846 145.108 12.6581C146.037 12.5104 147.007 12.4365 148.02 12.4365H150.33C150.854 12.4365 151.292 12.0083 151.206 11.4909C151.149 11.1421 151.057 10.8244 150.931 10.5378C150.699 9.9893 150.33 9.5568 149.824 9.24034C149.338 8.92388 148.706 8.76566 147.925 8.76566C147.419 8.76566 146.944 8.82895 146.501 8.95553C146.079 9.061 145.71 9.24034 145.393 9.4935C145.275 9.58673 145.169 9.69192 145.078 9.80898C144.826 10.1311 144.485 10.4112 144.076 10.4112H141.93C141.342 10.4112 140.887 9.87616 141.092 9.32499C141.246 8.91012 141.446 8.53379 141.691 8.19604C142.155 7.56312 142.714 7.04626 143.368 6.6454C144.043 6.24455 144.781 5.9492 145.583 5.75933C146.385 5.54835 147.197 5.44287 148.02 5.44287C150.446 5.44287 152.207 6.13907 153.305 7.53148C154.423 8.92388 154.982 10.8754 154.982 13.3859V21.4239C154.982 21.9482 154.557 22.3733 154.032 22.3733H152.082C151.792 22.3733 151.554 22.1452 151.541 21.8559C151.518 21.3351 150.775 21.0994 150.359 21.4129C150.159 21.5633 149.949 21.6936 149.729 21.8036C149.054 22.1412 148.4 22.3521 147.767 22.4365C147.134 22.542 146.596 22.5948 146.153 22.5948ZM146.912 19.4619C147.756 19.4619 148.505 19.3036 149.159 18.9872C149.813 18.6707 150.33 18.2277 150.71 17.6581C151.111 17.0884 151.311 16.4344 151.311 15.696C151.311 15.3989 151.07 15.1581 150.773 15.1581H148.273C147.767 15.1581 147.26 15.1792 146.754 15.2214C146.269 15.2425 145.826 15.3268 145.425 15.4745C145.024 15.6011 144.697 15.8015 144.444 16.0758C144.212 16.3501 144.096 16.7403 144.096 17.2467C144.096 17.753 144.222 18.1644 144.475 18.4808C144.75 18.7973 145.098 19.0399 145.52 19.2087C145.963 19.3775 146.427 19.4619 146.912 19.4619Z" fill="#00838F"/>
<path d="M165.409 22.5949C164.797 22.5949 164.185 22.5316 163.573 22.4051C162.961 22.2785 162.371 22.057 161.801 21.7405C161.625 21.6391 161.454 21.527 161.287 21.404C160.884 21.1075 160.239 21.345 160.214 21.8443C160.199 22.1407 159.954 22.3734 159.657 22.3734H157.402C156.878 22.3734 156.453 21.9484 156.453 21.4241V0.949367C156.453 0.425044 156.878 0 157.402 0H159.365C159.889 0 160.314 0.425048 160.314 0.949367V5.03456C160.314 5.93674 161.643 6.48465 162.469 6.12247C162.53 6.09554 162.593 6.06946 162.656 6.0443C163.626 5.64345 164.628 5.44304 165.662 5.44304C167.308 5.44304 168.658 5.82279 169.713 6.58228C170.789 7.32067 171.58 8.33332 172.086 9.62025C172.613 10.9072 172.877 12.3629 172.877 13.9873C172.877 15.6118 172.603 17.0781 172.054 18.3861C171.527 19.673 170.715 20.6962 169.618 21.4557C168.521 22.2152 167.118 22.5949 165.409 22.5949ZM164.776 19.1772C165.852 19.1772 166.696 18.9346 167.308 18.4494C167.94 17.943 168.394 17.289 168.668 16.4873C168.942 15.6857 169.08 14.8418 169.08 13.9557C169.08 13.0485 168.932 12.2152 168.637 11.4557C168.362 10.6962 167.909 10.0844 167.276 9.62025C166.643 9.15611 165.799 8.92405 164.744 8.92405C163.774 8.92405 162.951 9.17722 162.276 9.68355C161.622 10.1688 161.126 10.8122 160.789 11.6139C160.451 12.3945 160.282 13.2067 160.282 14.0506C160.282 14.9367 160.43 15.77 160.725 16.5506C161.042 17.3312 161.527 17.9641 162.181 18.4494C162.856 18.9346 163.721 19.1772 164.776 19.1772Z" fill="#00838F"/>
<path d="M180.161 22.5948C179.36 22.5948 178.558 22.5104 177.756 22.3416C176.976 22.1728 176.237 21.8986 175.541 21.5188C174.845 21.118 174.265 20.58 173.801 19.9049C173.511 19.4839 173.283 18.9972 173.117 18.4449C172.95 17.8906 173.402 17.3733 173.981 17.3733H176.111C176.51 17.3733 176.851 17.6342 177.073 17.9663C177.21 18.1725 177.375 18.3545 177.567 18.5125C177.946 18.7868 178.379 18.9977 178.864 19.1454C179.37 19.272 179.866 19.3353 180.351 19.3353C180.647 19.3353 180.963 19.3142 181.301 19.272C181.66 19.2298 181.986 19.1454 182.282 19.0188C182.598 18.8922 182.851 18.7129 183.041 18.4808C183.231 18.2277 183.326 17.9007 183.326 17.4998C183.326 17.1201 183.221 16.8247 183.01 16.6138C182.799 16.3817 182.514 16.2024 182.155 16.0758C181.797 15.9281 181.364 15.8121 180.858 15.7277C179.951 15.5378 178.98 15.3374 177.946 15.1264C176.913 14.8944 176.016 14.5357 175.256 14.0505C174.94 13.8606 174.666 13.6391 174.434 13.3859C174.202 13.1327 174.001 12.8585 173.832 12.5631C173.685 12.2467 173.569 11.9091 173.484 11.5505C173.421 11.1918 173.389 10.8015 173.389 10.3796C173.389 9.4935 173.569 8.74455 173.927 8.13274C174.307 7.49983 174.803 6.9935 175.415 6.61376C176.048 6.2129 176.765 5.91755 177.567 5.72768C178.368 5.53781 179.191 5.44287 180.035 5.44287C181.174 5.44287 182.208 5.62221 183.136 5.98085C184.065 6.33949 184.835 6.88803 185.446 7.62642C185.875 8.12657 186.188 8.71866 186.384 9.40271C186.54 9.94657 186.091 10.4429 185.525 10.4429H183.693C183.241 10.4429 182.872 10.0992 182.597 9.7398C182.433 9.52509 182.212 9.33752 181.934 9.17705C181.406 8.86059 180.731 8.70236 179.908 8.70236C179.613 8.70236 179.307 8.73401 178.991 8.7973C178.674 8.83949 178.368 8.92388 178.073 9.05047C177.799 9.15594 177.567 9.32474 177.377 9.5568C177.208 9.78885 177.124 10.0737 177.124 10.4112C177.124 10.7277 177.198 11.002 177.345 11.234C177.514 11.4661 177.756 11.6665 178.073 11.8353C178.411 11.983 178.801 12.1095 179.244 12.215C179.961 12.3627 180.71 12.5104 181.491 12.6581C182.271 12.8058 182.946 12.9534 183.516 13.1011C184.191 13.291 184.803 13.5652 185.351 13.9239C185.9 14.2614 186.322 14.715 186.617 15.2846C186.934 15.8332 187.092 16.5399 187.092 17.4049C187.092 18.4176 186.881 19.2614 186.459 19.9365C186.058 20.6116 185.52 21.1391 184.845 21.5188C184.17 21.8986 183.421 22.1728 182.598 22.3416C181.775 22.5104 180.963 22.5948 180.161 22.5948Z" fill="#00838F"/>
</g>
<defs>
<clipPath id="clip0_987_2">
<rect width="30.0633" height="30" fill="white"/>
</clipPath>
<clipPath id="clip1_987_2">
<rect width="147.563" height="30" fill="white" transform="translate(39.5557)"/>
</clipPath>
</defs>
</svg>
